<mxfile host="Electron" modified="2023-09-01T22:22:56.883Z" agent="Mozilla/5.0 (Windows NT 10.0; Win64; x64) AppleWebKit/537.36 (KHTML, like Gecko) draw.io/21.6.8 Chrome/114.0.5735.289 Electron/25.5.0 Safari/537.36" etag="0-E6W5ABfQ5b5L_Zji72" version="21.6.8" type="device" pages="7">
  <diagram name="Page-1" id="oPBpCSiiI8uHYQbLpkXP">
    <mxGraphModel dx="2458" dy="1215" grid="1" gridSize="10" guides="1" tooltips="1" connect="1" arrows="1" fold="1" page="0" pageScale="1" pageWidth="850" pageHeight="1100" math="0" shadow="0">
      <root>
        <mxCell id="0" />
        <mxCell id="1" parent="0" />
        <mxCell id="dgIalVtU5yjlaWJroxX5-9" value="" style="group;movable=1;resizable=1;rotatable=1;deletable=1;editable=1;locked=0;connectable=1;" parent="1" vertex="1" connectable="0">
          <mxGeometry x="-650" y="-40" width="1300" height="780" as="geometry" />
        </mxCell>
        <mxCell id="rZmDR0-BaXCgXtlocDPR-1" value="Window Title" style="strokeWidth=1;shadow=0;dashed=0;align=center;html=1;shape=mxgraph.mockup.containers.window;align=left;verticalAlign=top;spacingLeft=8;strokeColor2=#008cff;strokeColor3=#c4c4c4;fontColor=#666666;mainText=;fontSize=17;labelBackgroundColor=none;whiteSpace=wrap;movable=1;resizable=1;rotatable=1;deletable=1;editable=1;locked=0;connectable=1;" parent="dgIalVtU5yjlaWJroxX5-9" vertex="1">
          <mxGeometry width="1300" height="780" as="geometry" />
        </mxCell>
        <mxCell id="3h323T2b753Qe0bBPGR0-5" value="" style="rounded=0;whiteSpace=wrap;html=1;movable=1;resizable=1;rotatable=1;deletable=1;editable=1;locked=0;connectable=1;" parent="dgIalVtU5yjlaWJroxX5-9" vertex="1">
          <mxGeometry x="430" y="60" width="870" height="720" as="geometry" />
        </mxCell>
        <mxCell id="Pb-syBcDH0PEZSsdC7Qn-9" value="" style="verticalLabelPosition=bottom;shadow=0;dashed=0;align=center;html=1;verticalAlign=top;strokeWidth=1;shape=mxgraph.mockup.graphics.columnChart;strokeColor=none;strokeColor2=none;strokeColor3=#666666;fillColor2=#008cff;fillColor3=#dddddd;movable=1;resizable=1;rotatable=1;deletable=1;editable=1;locked=0;connectable=1;" parent="dgIalVtU5yjlaWJroxX5-9" vertex="1">
          <mxGeometry x="610" y="270" width="400" height="200" as="geometry" />
        </mxCell>
        <mxCell id="Pb-syBcDH0PEZSsdC7Qn-14" value="" style="strokeWidth=1;shadow=0;dashed=0;align=center;html=1;shape=mxgraph.mockup.forms.rrect;rSize=0;strokeColor=#999999;movable=1;resizable=1;rotatable=1;deletable=1;editable=1;locked=0;connectable=1;" parent="dgIalVtU5yjlaWJroxX5-9" vertex="1">
          <mxGeometry y="30" width="400" height="30" as="geometry" />
        </mxCell>
        <mxCell id="Pb-syBcDH0PEZSsdC7Qn-15" value="File" style="strokeColor=inherit;fillColor=inherit;gradientColor=inherit;strokeWidth=1;shadow=0;dashed=0;align=center;html=1;shape=mxgraph.mockup.forms.rrect;rSize=0;fontSize=17;fontColor=#666666;whiteSpace=wrap;movable=1;resizable=1;rotatable=1;deletable=1;editable=1;locked=0;connectable=1;" parent="Pb-syBcDH0PEZSsdC7Qn-14" vertex="1">
          <mxGeometry width="66.66666666666669" height="30" as="geometry" />
        </mxCell>
        <mxCell id="Pb-syBcDH0PEZSsdC7Qn-16" value="Edit" style="strokeColor=inherit;fillColor=inherit;gradientColor=inherit;strokeWidth=1;shadow=0;dashed=0;align=center;html=1;shape=mxgraph.mockup.forms.rrect;rSize=0;fontSize=17;fontColor=#666666;whiteSpace=wrap;movable=1;resizable=1;rotatable=1;deletable=1;editable=1;locked=0;connectable=1;" parent="Pb-syBcDH0PEZSsdC7Qn-14" vertex="1">
          <mxGeometry x="66.66666666666669" width="66.66666666666669" height="30" as="geometry" />
        </mxCell>
        <mxCell id="Pb-syBcDH0PEZSsdC7Qn-17" value="Options" style="strokeColor=inherit;fillColor=inherit;gradientColor=inherit;strokeWidth=1;shadow=0;dashed=0;align=center;html=1;shape=mxgraph.mockup.forms.rrect;rSize=0;fontSize=17;fontColor=#666666;whiteSpace=wrap;movable=1;resizable=1;rotatable=1;deletable=1;editable=1;locked=0;connectable=1;" parent="Pb-syBcDH0PEZSsdC7Qn-14" vertex="1">
          <mxGeometry x="133.33333333333337" width="66.66666666666669" height="30" as="geometry" />
        </mxCell>
        <mxCell id="Pb-syBcDH0PEZSsdC7Qn-18" value="Tools" style="strokeColor=inherit;fillColor=inherit;gradientColor=inherit;strokeWidth=1;shadow=0;dashed=0;align=center;html=1;shape=mxgraph.mockup.forms.rrect;rSize=0;fontSize=17;fontColor=#666666;whiteSpace=wrap;movable=1;resizable=1;rotatable=1;deletable=1;editable=1;locked=0;connectable=1;" parent="Pb-syBcDH0PEZSsdC7Qn-14" vertex="1">
          <mxGeometry x="200.00000000000009" width="66.66666666666669" height="30" as="geometry" />
        </mxCell>
        <mxCell id="Pb-syBcDH0PEZSsdC7Qn-19" value="Window" style="strokeColor=inherit;fillColor=inherit;gradientColor=inherit;strokeWidth=1;shadow=0;dashed=0;align=center;html=1;shape=mxgraph.mockup.forms.rrect;rSize=0;fontSize=17;fontColor=#666666;whiteSpace=wrap;movable=1;resizable=1;rotatable=1;deletable=1;editable=1;locked=0;connectable=1;" parent="Pb-syBcDH0PEZSsdC7Qn-14" vertex="1">
          <mxGeometry x="266.66666666666674" width="66.66666666666669" height="30" as="geometry" />
        </mxCell>
        <mxCell id="Pb-syBcDH0PEZSsdC7Qn-20" value="Help" style="strokeColor=inherit;fillColor=inherit;gradientColor=inherit;strokeWidth=1;shadow=0;dashed=0;align=center;html=1;shape=mxgraph.mockup.forms.rrect;rSize=0;fontSize=17;fontColor=#666666;whiteSpace=wrap;movable=1;resizable=1;rotatable=1;deletable=1;editable=1;locked=0;connectable=1;" parent="Pb-syBcDH0PEZSsdC7Qn-14" vertex="1">
          <mxGeometry x="333.3333333333334" width="66.66666666666669" height="30" as="geometry" />
        </mxCell>
        <mxCell id="3h323T2b753Qe0bBPGR0-1" value="" style="verticalLabelPosition=bottom;shadow=0;dashed=0;align=center;html=1;verticalAlign=top;strokeWidth=1;shape=mxgraph.mockup.menus_and_buttons.font_style_selector_3;fillColor=#151e15;movable=1;resizable=1;rotatable=1;deletable=1;editable=1;locked=0;connectable=1;" parent="dgIalVtU5yjlaWJroxX5-9" vertex="1">
          <mxGeometry x="430" y="730" width="200" height="50" as="geometry" />
        </mxCell>
        <mxCell id="3h323T2b753Qe0bBPGR0-6" value="" style="rounded=0;whiteSpace=wrap;html=1;movable=1;resizable=1;rotatable=1;deletable=1;editable=1;locked=0;connectable=1;" parent="dgIalVtU5yjlaWJroxX5-9" vertex="1">
          <mxGeometry y="60" width="430" height="310" as="geometry" />
        </mxCell>
        <mxCell id="3h323T2b753Qe0bBPGR0-8" value="" style="rounded=0;whiteSpace=wrap;html=1;movable=1;resizable=1;rotatable=1;deletable=1;editable=1;locked=0;connectable=1;" parent="dgIalVtU5yjlaWJroxX5-9" vertex="1">
          <mxGeometry y="370" width="430" height="410" as="geometry" />
        </mxCell>
        <mxCell id="3h323T2b753Qe0bBPGR0-16" value="Tab 1" style="strokeWidth=1;shadow=0;dashed=0;align=center;html=1;shape=mxgraph.mockup.forms.uRect;fontSize=17;fontColor=#666666;align=left;spacingLeft=5;strokeColor=#666666;movable=1;resizable=1;rotatable=1;deletable=1;editable=1;locked=0;connectable=1;" parent="dgIalVtU5yjlaWJroxX5-9" vertex="1">
          <mxGeometry x="430" y="60" width="70" height="30" as="geometry" />
        </mxCell>
        <mxCell id="dgIalVtU5yjlaWJroxX5-15" value="" style="group;movable=1;resizable=1;rotatable=1;deletable=1;editable=1;locked=0;connectable=1;" parent="dgIalVtU5yjlaWJroxX5-9" vertex="1" connectable="0">
          <mxGeometry y="370" width="210" height="25" as="geometry" />
        </mxCell>
        <mxCell id="dgIalVtU5yjlaWJroxX5-10" value="" style="strokeWidth=1;shadow=0;dashed=0;align=center;html=1;shape=mxgraph.mockup.text.rrect;rSize=0;strokeColor=#666666;container=0;movable=1;resizable=1;rotatable=1;deletable=1;editable=1;locked=0;connectable=1;" parent="dgIalVtU5yjlaWJroxX5-15" vertex="1">
          <mxGeometry width="207.2" height="25" as="geometry" />
        </mxCell>
        <mxCell id="dgIalVtU5yjlaWJroxX5-11" value="&lt;font color=&quot;#666666&quot;&gt;Delete&lt;/font&gt;" style="strokeColor=inherit;fillColor=inherit;gradientColor=inherit;strokeWidth=1;shadow=0;dashed=0;align=center;html=1;shape=mxgraph.mockup.text.rrect;rSize=0;fontSize=17;fontColor=#0000ff;whiteSpace=wrap;movable=1;resizable=1;rotatable=1;deletable=1;editable=1;locked=0;connectable=1;" parent="dgIalVtU5yjlaWJroxX5-15" vertex="1">
          <mxGeometry x="70" width="70" height="25" as="geometry" />
        </mxCell>
        <mxCell id="dgIalVtU5yjlaWJroxX5-12" value="&lt;font color=&quot;#666666&quot;&gt;Save&lt;/font&gt;" style="strokeColor=inherit;fillColor=inherit;gradientColor=inherit;strokeWidth=1;shadow=0;dashed=0;align=center;html=1;shape=mxgraph.mockup.text.rrect;rSize=0;fontSize=17;fontColor=#0000ff;whiteSpace=wrap;movable=1;resizable=1;rotatable=1;deletable=1;editable=1;locked=0;connectable=1;" parent="dgIalVtU5yjlaWJroxX5-15" vertex="1">
          <mxGeometry x="140" width="70" height="25" as="geometry" />
        </mxCell>
        <mxCell id="dgIalVtU5yjlaWJroxX5-14" value="&lt;font color=&quot;#666666&quot;&gt;Create&lt;/font&gt;" style="strokeWidth=1;shadow=0;dashed=0;align=center;html=1;shape=mxgraph.mockup.text.rrect;rSize=0;fontSize=17;fontColor=#ffffff;fillColor=#008cff;strokeColor=#008cff;whiteSpace=wrap;movable=1;resizable=1;rotatable=1;deletable=1;editable=1;locked=0;connectable=1;" parent="dgIalVtU5yjlaWJroxX5-15" vertex="1">
          <mxGeometry width="70" height="25" as="geometry" />
        </mxCell>
        <mxCell id="kYUcFLvGpoJXw2YCzjrr-5" value="&lt;font color=&quot;#666666&quot;&gt;Apply&lt;/font&gt;" style="strokeWidth=1;shadow=0;dashed=0;align=center;html=1;shape=mxgraph.mockup.text.rrect;rSize=0;fontSize=17;fontColor=#ffffff;fillColor=#008cff;strokeColor=#008cff;whiteSpace=wrap;" parent="dgIalVtU5yjlaWJroxX5-9" vertex="1">
          <mxGeometry x="350" y="340" width="80" height="30" as="geometry" />
        </mxCell>
        <mxCell id="kYUcFLvGpoJXw2YCzjrr-7" value="Design" style="strokeWidth=1;shadow=0;dashed=0;align=center;html=1;shape=mxgraph.mockup.forms.uRect;fontSize=17;fontColor=#666666;align=left;spacingLeft=5;strokeColor=#666666;movable=1;resizable=1;rotatable=1;deletable=1;editable=1;locked=0;connectable=1;" parent="dgIalVtU5yjlaWJroxX5-9" vertex="1">
          <mxGeometry y="60" width="70" height="30" as="geometry" />
        </mxCell>
      </root>
    </mxGraphModel>
  </diagram>
  <diagram id="TbjaSufsoUnIgl-0AnFa" name="Page-2">
    <mxGraphModel dx="2508" dy="815" grid="1" gridSize="10" guides="1" tooltips="1" connect="1" arrows="1" fold="1" page="1" pageScale="1" pageWidth="850" pageHeight="1100" math="0" shadow="0">
      <root>
        <mxCell id="0" />
        <mxCell id="1" parent="0" />
        <mxCell id="e_Jthv_KxROrFZQzVE1Z-1" value="Window Title" style="strokeWidth=1;shadow=0;dashed=0;align=center;html=1;shape=mxgraph.mockup.containers.window;align=left;verticalAlign=top;spacingLeft=8;strokeColor2=#008cff;strokeColor3=#c4c4c4;fontColor=#666666;mainText=;fontSize=17;labelBackgroundColor=none;whiteSpace=wrap;" parent="1" vertex="1">
          <mxGeometry x="-20" y="310" width="1020" height="750" as="geometry" />
        </mxCell>
        <mxCell id="4eEB9BgBcPVTSxfUeO-O-2" value="Search" style="strokeWidth=1;shadow=0;dashed=0;align=center;html=1;shape=mxgraph.mockup.forms.searchBox;strokeColor=#999999;mainText=;strokeColor2=#008cff;fontColor=#666666;fontSize=17;align=left;spacingLeft=3;whiteSpace=wrap;" parent="1" vertex="1">
          <mxGeometry x="-20" y="410" width="1020" height="40" as="geometry" />
        </mxCell>
        <mxCell id="4eEB9BgBcPVTSxfUeO-O-3" value="" style="strokeWidth=1;shadow=0;dashed=0;align=center;html=1;shape=mxgraph.mockup.forms.rrect;rSize=0;strokeColor=#999999;" parent="1" vertex="1">
          <mxGeometry x="-20" y="340" width="498" height="30" as="geometry" />
        </mxCell>
        <mxCell id="4eEB9BgBcPVTSxfUeO-O-4" value="File" style="strokeColor=inherit;fillColor=inherit;gradientColor=inherit;strokeWidth=1;shadow=0;dashed=0;align=center;html=1;shape=mxgraph.mockup.forms.rrect;rSize=0;fontSize=17;fontColor=#666666;whiteSpace=wrap;" parent="4eEB9BgBcPVTSxfUeO-O-3" vertex="1">
          <mxGeometry width="83" height="30" as="geometry" />
        </mxCell>
        <mxCell id="4eEB9BgBcPVTSxfUeO-O-5" value="Edit" style="strokeColor=inherit;fillColor=inherit;gradientColor=inherit;strokeWidth=1;shadow=0;dashed=0;align=center;html=1;shape=mxgraph.mockup.forms.rrect;rSize=0;fontSize=17;fontColor=#666666;whiteSpace=wrap;" parent="4eEB9BgBcPVTSxfUeO-O-3" vertex="1">
          <mxGeometry x="83" width="83" height="30" as="geometry" />
        </mxCell>
        <mxCell id="4eEB9BgBcPVTSxfUeO-O-6" value="Options" style="strokeColor=inherit;fillColor=inherit;gradientColor=inherit;strokeWidth=1;shadow=0;dashed=0;align=center;html=1;shape=mxgraph.mockup.forms.rrect;rSize=0;fontSize=17;fontColor=#666666;whiteSpace=wrap;" parent="4eEB9BgBcPVTSxfUeO-O-3" vertex="1">
          <mxGeometry x="166" width="83" height="30" as="geometry" />
        </mxCell>
        <mxCell id="4eEB9BgBcPVTSxfUeO-O-7" value="Tools" style="strokeColor=inherit;fillColor=inherit;gradientColor=inherit;strokeWidth=1;shadow=0;dashed=0;align=center;html=1;shape=mxgraph.mockup.forms.rrect;rSize=0;fontSize=17;fontColor=#666666;whiteSpace=wrap;" parent="4eEB9BgBcPVTSxfUeO-O-3" vertex="1">
          <mxGeometry x="249" width="83" height="30" as="geometry" />
        </mxCell>
        <mxCell id="4eEB9BgBcPVTSxfUeO-O-8" value="Window" style="strokeColor=inherit;fillColor=inherit;gradientColor=inherit;strokeWidth=1;shadow=0;dashed=0;align=center;html=1;shape=mxgraph.mockup.forms.rrect;rSize=0;fontSize=17;fontColor=#666666;whiteSpace=wrap;" parent="4eEB9BgBcPVTSxfUeO-O-3" vertex="1">
          <mxGeometry x="332" width="83" height="30" as="geometry" />
        </mxCell>
        <mxCell id="4eEB9BgBcPVTSxfUeO-O-9" value="Help" style="strokeColor=inherit;fillColor=inherit;gradientColor=inherit;strokeWidth=1;shadow=0;dashed=0;align=center;html=1;shape=mxgraph.mockup.forms.rrect;rSize=0;fontSize=17;fontColor=#666666;whiteSpace=wrap;" parent="4eEB9BgBcPVTSxfUeO-O-3" vertex="1">
          <mxGeometry x="415" width="83" height="30" as="geometry" />
        </mxCell>
        <mxCell id="gXe3NrbdDyIHPAxdt47R-11" value="" style="shape=table;html=1;whiteSpace=wrap;startSize=0;container=1;collapsible=0;childLayout=tableLayout;strokeWidth=2;" parent="1" vertex="1">
          <mxGeometry x="-20" y="500" width="340" height="280" as="geometry" />
        </mxCell>
        <mxCell id="gXe3NrbdDyIHPAxdt47R-12" value="" style="shape=tableRow;horizontal=0;startSize=0;swimlaneHead=0;swimlaneBody=0;top=0;left=0;bottom=0;right=0;collapsible=0;dropTarget=0;fillColor=none;points=[[0,0.5],[1,0.5]];portConstraint=eastwest;" parent="gXe3NrbdDyIHPAxdt47R-11" vertex="1">
          <mxGeometry width="340" height="95" as="geometry" />
        </mxCell>
        <mxCell id="gXe3NrbdDyIHPAxdt47R-13" value="Column 1" style="shape=partialRectangle;html=1;whiteSpace=wrap;connectable=0;fillColor=none;top=0;left=0;bottom=0;right=0;overflow=hidden;fontStyle=1" parent="gXe3NrbdDyIHPAxdt47R-12" vertex="1">
          <mxGeometry width="170" height="95" as="geometry">
            <mxRectangle width="170" height="95" as="alternateBounds" />
          </mxGeometry>
        </mxCell>
        <mxCell id="gXe3NrbdDyIHPAxdt47R-14" value="Column 2" style="shape=partialRectangle;html=1;whiteSpace=wrap;connectable=0;fillColor=none;top=0;left=0;bottom=0;right=0;overflow=hidden;fontStyle=1" parent="gXe3NrbdDyIHPAxdt47R-12" vertex="1">
          <mxGeometry x="170" width="170" height="95" as="geometry">
            <mxRectangle width="170" height="95" as="alternateBounds" />
          </mxGeometry>
        </mxCell>
        <mxCell id="gXe3NrbdDyIHPAxdt47R-15" value="" style="shape=tableRow;horizontal=0;startSize=0;swimlaneHead=0;swimlaneBody=0;top=0;left=0;bottom=0;right=0;collapsible=0;dropTarget=0;fillColor=none;points=[[0,0.5],[1,0.5]];portConstraint=eastwest;" parent="gXe3NrbdDyIHPAxdt47R-11" vertex="1">
          <mxGeometry y="95" width="340" height="91" as="geometry" />
        </mxCell>
        <mxCell id="gXe3NrbdDyIHPAxdt47R-16" value="row 1, cell 1" style="shape=partialRectangle;html=1;whiteSpace=wrap;connectable=0;fillColor=none;top=0;left=0;bottom=0;right=0;overflow=hidden;" parent="gXe3NrbdDyIHPAxdt47R-15" vertex="1">
          <mxGeometry width="170" height="91" as="geometry">
            <mxRectangle width="170" height="91" as="alternateBounds" />
          </mxGeometry>
        </mxCell>
        <mxCell id="gXe3NrbdDyIHPAxdt47R-17" value="row 1, cell 2" style="shape=partialRectangle;html=1;whiteSpace=wrap;connectable=0;fillColor=none;top=0;left=0;bottom=0;right=0;overflow=hidden;" parent="gXe3NrbdDyIHPAxdt47R-15" vertex="1">
          <mxGeometry x="170" width="170" height="91" as="geometry">
            <mxRectangle width="170" height="91" as="alternateBounds" />
          </mxGeometry>
        </mxCell>
        <mxCell id="gXe3NrbdDyIHPAxdt47R-18" value="" style="shape=tableRow;horizontal=0;startSize=0;swimlaneHead=0;swimlaneBody=0;top=0;left=0;bottom=0;right=0;collapsible=0;dropTarget=0;fillColor=none;points=[[0,0.5],[1,0.5]];portConstraint=eastwest;" parent="gXe3NrbdDyIHPAxdt47R-11" vertex="1">
          <mxGeometry y="186" width="340" height="94" as="geometry" />
        </mxCell>
        <mxCell id="gXe3NrbdDyIHPAxdt47R-19" value="row 2, cell 1" style="shape=partialRectangle;html=1;whiteSpace=wrap;connectable=0;fillColor=none;top=0;left=0;bottom=0;right=0;overflow=hidden;" parent="gXe3NrbdDyIHPAxdt47R-18" vertex="1">
          <mxGeometry width="170" height="94" as="geometry">
            <mxRectangle width="170" height="94" as="alternateBounds" />
          </mxGeometry>
        </mxCell>
        <mxCell id="gXe3NrbdDyIHPAxdt47R-20" value="row 2, cell 2" style="shape=partialRectangle;html=1;whiteSpace=wrap;connectable=0;fillColor=none;top=0;left=0;bottom=0;right=0;overflow=hidden;" parent="gXe3NrbdDyIHPAxdt47R-18" vertex="1">
          <mxGeometry x="170" width="170" height="94" as="geometry">
            <mxRectangle width="170" height="94" as="alternateBounds" />
          </mxGeometry>
        </mxCell>
        <mxCell id="gXe3NrbdDyIHPAxdt47R-32" value="" style="shape=table;html=1;whiteSpace=wrap;startSize=0;container=1;collapsible=0;childLayout=tableLayout;strokeWidth=2;" parent="1" vertex="1">
          <mxGeometry x="320" y="500" width="340" height="280" as="geometry" />
        </mxCell>
        <mxCell id="gXe3NrbdDyIHPAxdt47R-33" value="" style="shape=tableRow;horizontal=0;startSize=0;swimlaneHead=0;swimlaneBody=0;top=0;left=0;bottom=0;right=0;collapsible=0;dropTarget=0;fillColor=none;points=[[0,0.5],[1,0.5]];portConstraint=eastwest;" parent="gXe3NrbdDyIHPAxdt47R-32" vertex="1">
          <mxGeometry width="340" height="95" as="geometry" />
        </mxCell>
        <mxCell id="gXe3NrbdDyIHPAxdt47R-34" value="Column 3" style="shape=partialRectangle;html=1;whiteSpace=wrap;connectable=0;fillColor=none;top=0;left=0;bottom=0;right=0;overflow=hidden;fontStyle=1" parent="gXe3NrbdDyIHPAxdt47R-33" vertex="1">
          <mxGeometry width="170" height="95" as="geometry">
            <mxRectangle width="170" height="95" as="alternateBounds" />
          </mxGeometry>
        </mxCell>
        <mxCell id="gXe3NrbdDyIHPAxdt47R-35" value="Column 4" style="shape=partialRectangle;html=1;whiteSpace=wrap;connectable=0;fillColor=none;top=0;left=0;bottom=0;right=0;overflow=hidden;fontStyle=1" parent="gXe3NrbdDyIHPAxdt47R-33" vertex="1">
          <mxGeometry x="170" width="170" height="95" as="geometry">
            <mxRectangle width="170" height="95" as="alternateBounds" />
          </mxGeometry>
        </mxCell>
        <mxCell id="gXe3NrbdDyIHPAxdt47R-36" value="" style="shape=tableRow;horizontal=0;startSize=0;swimlaneHead=0;swimlaneBody=0;top=0;left=0;bottom=0;right=0;collapsible=0;dropTarget=0;fillColor=none;points=[[0,0.5],[1,0.5]];portConstraint=eastwest;" parent="gXe3NrbdDyIHPAxdt47R-32" vertex="1">
          <mxGeometry y="95" width="340" height="91" as="geometry" />
        </mxCell>
        <mxCell id="gXe3NrbdDyIHPAxdt47R-37" value="row 1, cell 3" style="shape=partialRectangle;html=1;whiteSpace=wrap;connectable=0;fillColor=none;top=0;left=0;bottom=0;right=0;overflow=hidden;" parent="gXe3NrbdDyIHPAxdt47R-36" vertex="1">
          <mxGeometry width="170" height="91" as="geometry">
            <mxRectangle width="170" height="91" as="alternateBounds" />
          </mxGeometry>
        </mxCell>
        <mxCell id="gXe3NrbdDyIHPAxdt47R-38" value="row 1, cell 3" style="shape=partialRectangle;html=1;whiteSpace=wrap;connectable=0;fillColor=none;top=0;left=0;bottom=0;right=0;overflow=hidden;" parent="gXe3NrbdDyIHPAxdt47R-36" vertex="1">
          <mxGeometry x="170" width="170" height="91" as="geometry">
            <mxRectangle width="170" height="91" as="alternateBounds" />
          </mxGeometry>
        </mxCell>
        <mxCell id="gXe3NrbdDyIHPAxdt47R-39" value="" style="shape=tableRow;horizontal=0;startSize=0;swimlaneHead=0;swimlaneBody=0;top=0;left=0;bottom=0;right=0;collapsible=0;dropTarget=0;fillColor=none;points=[[0,0.5],[1,0.5]];portConstraint=eastwest;" parent="gXe3NrbdDyIHPAxdt47R-32" vertex="1">
          <mxGeometry y="186" width="340" height="94" as="geometry" />
        </mxCell>
        <mxCell id="gXe3NrbdDyIHPAxdt47R-40" value="row 2, cell 3" style="shape=partialRectangle;html=1;whiteSpace=wrap;connectable=0;fillColor=none;top=0;left=0;bottom=0;right=0;overflow=hidden;" parent="gXe3NrbdDyIHPAxdt47R-39" vertex="1">
          <mxGeometry width="170" height="94" as="geometry">
            <mxRectangle width="170" height="94" as="alternateBounds" />
          </mxGeometry>
        </mxCell>
        <mxCell id="gXe3NrbdDyIHPAxdt47R-41" value="row 2, cell 4" style="shape=partialRectangle;html=1;whiteSpace=wrap;connectable=0;fillColor=none;top=0;left=0;bottom=0;right=0;overflow=hidden;" parent="gXe3NrbdDyIHPAxdt47R-39" vertex="1">
          <mxGeometry x="170" width="170" height="94" as="geometry">
            <mxRectangle width="170" height="94" as="alternateBounds" />
          </mxGeometry>
        </mxCell>
        <mxCell id="gXe3NrbdDyIHPAxdt47R-42" value="" style="shape=table;html=1;whiteSpace=wrap;startSize=0;container=1;collapsible=0;childLayout=tableLayout;strokeWidth=2;" parent="1" vertex="1">
          <mxGeometry x="660" y="500" width="340" height="280" as="geometry" />
        </mxCell>
        <mxCell id="gXe3NrbdDyIHPAxdt47R-43" value="" style="shape=tableRow;horizontal=0;startSize=0;swimlaneHead=0;swimlaneBody=0;top=0;left=0;bottom=0;right=0;collapsible=0;dropTarget=0;fillColor=none;points=[[0,0.5],[1,0.5]];portConstraint=eastwest;" parent="gXe3NrbdDyIHPAxdt47R-42" vertex="1">
          <mxGeometry width="340" height="95" as="geometry" />
        </mxCell>
        <mxCell id="gXe3NrbdDyIHPAxdt47R-44" value="Column 5" style="shape=partialRectangle;html=1;whiteSpace=wrap;connectable=0;fillColor=none;top=0;left=0;bottom=0;right=0;overflow=hidden;fontStyle=1" parent="gXe3NrbdDyIHPAxdt47R-43" vertex="1">
          <mxGeometry width="170" height="95" as="geometry">
            <mxRectangle width="170" height="95" as="alternateBounds" />
          </mxGeometry>
        </mxCell>
        <mxCell id="gXe3NrbdDyIHPAxdt47R-45" value="Column 6" style="shape=partialRectangle;html=1;whiteSpace=wrap;connectable=0;fillColor=none;top=0;left=0;bottom=0;right=0;overflow=hidden;fontStyle=1" parent="gXe3NrbdDyIHPAxdt47R-43" vertex="1">
          <mxGeometry x="170" width="170" height="95" as="geometry">
            <mxRectangle width="170" height="95" as="alternateBounds" />
          </mxGeometry>
        </mxCell>
        <mxCell id="gXe3NrbdDyIHPAxdt47R-46" value="" style="shape=tableRow;horizontal=0;startSize=0;swimlaneHead=0;swimlaneBody=0;top=0;left=0;bottom=0;right=0;collapsible=0;dropTarget=0;fillColor=none;points=[[0,0.5],[1,0.5]];portConstraint=eastwest;" parent="gXe3NrbdDyIHPAxdt47R-42" vertex="1">
          <mxGeometry y="95" width="340" height="91" as="geometry" />
        </mxCell>
        <mxCell id="gXe3NrbdDyIHPAxdt47R-47" value="row 1, cell 4" style="shape=partialRectangle;html=1;whiteSpace=wrap;connectable=0;fillColor=none;top=0;left=0;bottom=0;right=0;overflow=hidden;" parent="gXe3NrbdDyIHPAxdt47R-46" vertex="1">
          <mxGeometry width="170" height="91" as="geometry">
            <mxRectangle width="170" height="91" as="alternateBounds" />
          </mxGeometry>
        </mxCell>
        <mxCell id="gXe3NrbdDyIHPAxdt47R-48" value="row 1, cell 5" style="shape=partialRectangle;html=1;whiteSpace=wrap;connectable=0;fillColor=none;top=0;left=0;bottom=0;right=0;overflow=hidden;" parent="gXe3NrbdDyIHPAxdt47R-46" vertex="1">
          <mxGeometry x="170" width="170" height="91" as="geometry">
            <mxRectangle width="170" height="91" as="alternateBounds" />
          </mxGeometry>
        </mxCell>
        <mxCell id="gXe3NrbdDyIHPAxdt47R-49" value="" style="shape=tableRow;horizontal=0;startSize=0;swimlaneHead=0;swimlaneBody=0;top=0;left=0;bottom=0;right=0;collapsible=0;dropTarget=0;fillColor=none;points=[[0,0.5],[1,0.5]];portConstraint=eastwest;" parent="gXe3NrbdDyIHPAxdt47R-42" vertex="1">
          <mxGeometry y="186" width="340" height="94" as="geometry" />
        </mxCell>
        <mxCell id="gXe3NrbdDyIHPAxdt47R-50" value="row 2, cell 5" style="shape=partialRectangle;html=1;whiteSpace=wrap;connectable=0;fillColor=none;top=0;left=0;bottom=0;right=0;overflow=hidden;" parent="gXe3NrbdDyIHPAxdt47R-49" vertex="1">
          <mxGeometry width="170" height="94" as="geometry">
            <mxRectangle width="170" height="94" as="alternateBounds" />
          </mxGeometry>
        </mxCell>
        <mxCell id="gXe3NrbdDyIHPAxdt47R-51" value="row 2, cell 6" style="shape=partialRectangle;html=1;whiteSpace=wrap;connectable=0;fillColor=none;top=0;left=0;bottom=0;right=0;overflow=hidden;" parent="gXe3NrbdDyIHPAxdt47R-49" vertex="1">
          <mxGeometry x="170" width="170" height="94" as="geometry">
            <mxRectangle width="170" height="94" as="alternateBounds" />
          </mxGeometry>
        </mxCell>
        <mxCell id="gXe3NrbdDyIHPAxdt47R-52" value="" style="shape=table;html=1;whiteSpace=wrap;startSize=0;container=1;collapsible=0;childLayout=tableLayout;strokeWidth=2;" parent="1" vertex="1">
          <mxGeometry x="-20" y="780" width="340" height="280" as="geometry" />
        </mxCell>
        <mxCell id="gXe3NrbdDyIHPAxdt47R-53" value="" style="shape=tableRow;horizontal=0;startSize=0;swimlaneHead=0;swimlaneBody=0;top=0;left=0;bottom=0;right=0;collapsible=0;dropTarget=0;fillColor=none;points=[[0,0.5],[1,0.5]];portConstraint=eastwest;" parent="gXe3NrbdDyIHPAxdt47R-52" vertex="1">
          <mxGeometry width="340" height="95" as="geometry" />
        </mxCell>
        <mxCell id="gXe3NrbdDyIHPAxdt47R-54" value="&lt;span style=&quot;font-weight: normal;&quot;&gt;row 3, cell 1&lt;/span&gt;" style="shape=partialRectangle;html=1;whiteSpace=wrap;connectable=0;fillColor=none;top=0;left=0;bottom=0;right=0;overflow=hidden;fontStyle=1" parent="gXe3NrbdDyIHPAxdt47R-53" vertex="1">
          <mxGeometry width="170" height="95" as="geometry">
            <mxRectangle width="170" height="95" as="alternateBounds" />
          </mxGeometry>
        </mxCell>
        <mxCell id="gXe3NrbdDyIHPAxdt47R-55" value="&lt;span style=&quot;font-weight: normal;&quot;&gt;row 3, cell 2&lt;/span&gt;" style="shape=partialRectangle;html=1;whiteSpace=wrap;connectable=0;fillColor=none;top=0;left=0;bottom=0;right=0;overflow=hidden;fontStyle=1" parent="gXe3NrbdDyIHPAxdt47R-53" vertex="1">
          <mxGeometry x="170" width="170" height="95" as="geometry">
            <mxRectangle width="170" height="95" as="alternateBounds" />
          </mxGeometry>
        </mxCell>
        <mxCell id="gXe3NrbdDyIHPAxdt47R-56" value="" style="shape=tableRow;horizontal=0;startSize=0;swimlaneHead=0;swimlaneBody=0;top=0;left=0;bottom=0;right=0;collapsible=0;dropTarget=0;fillColor=none;points=[[0,0.5],[1,0.5]];portConstraint=eastwest;" parent="gXe3NrbdDyIHPAxdt47R-52" vertex="1">
          <mxGeometry y="95" width="340" height="91" as="geometry" />
        </mxCell>
        <mxCell id="gXe3NrbdDyIHPAxdt47R-57" value="row 4, cell 1" style="shape=partialRectangle;html=1;whiteSpace=wrap;connectable=0;fillColor=none;top=0;left=0;bottom=0;right=0;overflow=hidden;" parent="gXe3NrbdDyIHPAxdt47R-56" vertex="1">
          <mxGeometry width="170" height="91" as="geometry">
            <mxRectangle width="170" height="91" as="alternateBounds" />
          </mxGeometry>
        </mxCell>
        <mxCell id="gXe3NrbdDyIHPAxdt47R-58" value="row 4, cell 2" style="shape=partialRectangle;html=1;whiteSpace=wrap;connectable=0;fillColor=none;top=0;left=0;bottom=0;right=0;overflow=hidden;" parent="gXe3NrbdDyIHPAxdt47R-56" vertex="1">
          <mxGeometry x="170" width="170" height="91" as="geometry">
            <mxRectangle width="170" height="91" as="alternateBounds" />
          </mxGeometry>
        </mxCell>
        <mxCell id="gXe3NrbdDyIHPAxdt47R-59" value="" style="shape=tableRow;horizontal=0;startSize=0;swimlaneHead=0;swimlaneBody=0;top=0;left=0;bottom=0;right=0;collapsible=0;dropTarget=0;fillColor=none;points=[[0,0.5],[1,0.5]];portConstraint=eastwest;" parent="gXe3NrbdDyIHPAxdt47R-52" vertex="1">
          <mxGeometry y="186" width="340" height="94" as="geometry" />
        </mxCell>
        <mxCell id="gXe3NrbdDyIHPAxdt47R-60" value="row 5, cell 1" style="shape=partialRectangle;html=1;whiteSpace=wrap;connectable=0;fillColor=none;top=0;left=0;bottom=0;right=0;overflow=hidden;" parent="gXe3NrbdDyIHPAxdt47R-59" vertex="1">
          <mxGeometry width="170" height="94" as="geometry">
            <mxRectangle width="170" height="94" as="alternateBounds" />
          </mxGeometry>
        </mxCell>
        <mxCell id="gXe3NrbdDyIHPAxdt47R-61" value="row 5, cell 2" style="shape=partialRectangle;html=1;whiteSpace=wrap;connectable=0;fillColor=none;top=0;left=0;bottom=0;right=0;overflow=hidden;" parent="gXe3NrbdDyIHPAxdt47R-59" vertex="1">
          <mxGeometry x="170" width="170" height="94" as="geometry">
            <mxRectangle width="170" height="94" as="alternateBounds" />
          </mxGeometry>
        </mxCell>
        <mxCell id="gXe3NrbdDyIHPAxdt47R-62" value="" style="shape=table;html=1;whiteSpace=wrap;startSize=0;container=1;collapsible=0;childLayout=tableLayout;strokeWidth=2;" parent="1" vertex="1">
          <mxGeometry x="320" y="780" width="340" height="280" as="geometry" />
        </mxCell>
        <mxCell id="gXe3NrbdDyIHPAxdt47R-63" value="" style="shape=tableRow;horizontal=0;startSize=0;swimlaneHead=0;swimlaneBody=0;top=0;left=0;bottom=0;right=0;collapsible=0;dropTarget=0;fillColor=none;points=[[0,0.5],[1,0.5]];portConstraint=eastwest;" parent="gXe3NrbdDyIHPAxdt47R-62" vertex="1">
          <mxGeometry width="340" height="95" as="geometry" />
        </mxCell>
        <mxCell id="gXe3NrbdDyIHPAxdt47R-64" value="row 3, cell 3" style="shape=partialRectangle;html=1;whiteSpace=wrap;connectable=0;fillColor=none;top=0;left=0;bottom=0;right=0;overflow=hidden;fontStyle=0" parent="gXe3NrbdDyIHPAxdt47R-63" vertex="1">
          <mxGeometry width="170" height="95" as="geometry">
            <mxRectangle width="170" height="95" as="alternateBounds" />
          </mxGeometry>
        </mxCell>
        <mxCell id="gXe3NrbdDyIHPAxdt47R-65" value="row 3, cell 4" style="shape=partialRectangle;html=1;whiteSpace=wrap;connectable=0;fillColor=none;top=0;left=0;bottom=0;right=0;overflow=hidden;fontStyle=0" parent="gXe3NrbdDyIHPAxdt47R-63" vertex="1">
          <mxGeometry x="170" width="170" height="95" as="geometry">
            <mxRectangle width="170" height="95" as="alternateBounds" />
          </mxGeometry>
        </mxCell>
        <mxCell id="gXe3NrbdDyIHPAxdt47R-66" value="" style="shape=tableRow;horizontal=0;startSize=0;swimlaneHead=0;swimlaneBody=0;top=0;left=0;bottom=0;right=0;collapsible=0;dropTarget=0;fillColor=none;points=[[0,0.5],[1,0.5]];portConstraint=eastwest;" parent="gXe3NrbdDyIHPAxdt47R-62" vertex="1">
          <mxGeometry y="95" width="340" height="91" as="geometry" />
        </mxCell>
        <mxCell id="gXe3NrbdDyIHPAxdt47R-67" value="row 4, cell 3" style="shape=partialRectangle;html=1;whiteSpace=wrap;connectable=0;fillColor=none;top=0;left=0;bottom=0;right=0;overflow=hidden;" parent="gXe3NrbdDyIHPAxdt47R-66" vertex="1">
          <mxGeometry width="170" height="91" as="geometry">
            <mxRectangle width="170" height="91" as="alternateBounds" />
          </mxGeometry>
        </mxCell>
        <mxCell id="gXe3NrbdDyIHPAxdt47R-68" value="row 4, cell 4" style="shape=partialRectangle;html=1;whiteSpace=wrap;connectable=0;fillColor=none;top=0;left=0;bottom=0;right=0;overflow=hidden;" parent="gXe3NrbdDyIHPAxdt47R-66" vertex="1">
          <mxGeometry x="170" width="170" height="91" as="geometry">
            <mxRectangle width="170" height="91" as="alternateBounds" />
          </mxGeometry>
        </mxCell>
        <mxCell id="gXe3NrbdDyIHPAxdt47R-69" value="" style="shape=tableRow;horizontal=0;startSize=0;swimlaneHead=0;swimlaneBody=0;top=0;left=0;bottom=0;right=0;collapsible=0;dropTarget=0;fillColor=none;points=[[0,0.5],[1,0.5]];portConstraint=eastwest;" parent="gXe3NrbdDyIHPAxdt47R-62" vertex="1">
          <mxGeometry y="186" width="340" height="94" as="geometry" />
        </mxCell>
        <mxCell id="gXe3NrbdDyIHPAxdt47R-70" value="row 5, cell 3" style="shape=partialRectangle;html=1;whiteSpace=wrap;connectable=0;fillColor=none;top=0;left=0;bottom=0;right=0;overflow=hidden;" parent="gXe3NrbdDyIHPAxdt47R-69" vertex="1">
          <mxGeometry width="170" height="94" as="geometry">
            <mxRectangle width="170" height="94" as="alternateBounds" />
          </mxGeometry>
        </mxCell>
        <mxCell id="gXe3NrbdDyIHPAxdt47R-71" value="row 5, cell 4" style="shape=partialRectangle;html=1;whiteSpace=wrap;connectable=0;fillColor=none;top=0;left=0;bottom=0;right=0;overflow=hidden;" parent="gXe3NrbdDyIHPAxdt47R-69" vertex="1">
          <mxGeometry x="170" width="170" height="94" as="geometry">
            <mxRectangle width="170" height="94" as="alternateBounds" />
          </mxGeometry>
        </mxCell>
        <mxCell id="gXe3NrbdDyIHPAxdt47R-72" value="" style="shape=table;html=1;whiteSpace=wrap;startSize=0;container=1;collapsible=0;childLayout=tableLayout;strokeWidth=2;" parent="1" vertex="1">
          <mxGeometry x="660" y="780" width="340" height="280" as="geometry" />
        </mxCell>
        <mxCell id="gXe3NrbdDyIHPAxdt47R-73" value="" style="shape=tableRow;horizontal=0;startSize=0;swimlaneHead=0;swimlaneBody=0;top=0;left=0;bottom=0;right=0;collapsible=0;dropTarget=0;fillColor=none;points=[[0,0.5],[1,0.5]];portConstraint=eastwest;" parent="gXe3NrbdDyIHPAxdt47R-72" vertex="1">
          <mxGeometry width="340" height="95" as="geometry" />
        </mxCell>
        <mxCell id="gXe3NrbdDyIHPAxdt47R-74" value="row 3, cell 5" style="shape=partialRectangle;html=1;whiteSpace=wrap;connectable=0;fillColor=none;top=0;left=0;bottom=0;right=0;overflow=hidden;fontStyle=0" parent="gXe3NrbdDyIHPAxdt47R-73" vertex="1">
          <mxGeometry width="170" height="95" as="geometry">
            <mxRectangle width="170" height="95" as="alternateBounds" />
          </mxGeometry>
        </mxCell>
        <mxCell id="gXe3NrbdDyIHPAxdt47R-75" value="row 3, cell 6" style="shape=partialRectangle;html=1;whiteSpace=wrap;connectable=0;fillColor=none;top=0;left=0;bottom=0;right=0;overflow=hidden;fontStyle=0" parent="gXe3NrbdDyIHPAxdt47R-73" vertex="1">
          <mxGeometry x="170" width="170" height="95" as="geometry">
            <mxRectangle width="170" height="95" as="alternateBounds" />
          </mxGeometry>
        </mxCell>
        <mxCell id="gXe3NrbdDyIHPAxdt47R-76" value="" style="shape=tableRow;horizontal=0;startSize=0;swimlaneHead=0;swimlaneBody=0;top=0;left=0;bottom=0;right=0;collapsible=0;dropTarget=0;fillColor=none;points=[[0,0.5],[1,0.5]];portConstraint=eastwest;" parent="gXe3NrbdDyIHPAxdt47R-72" vertex="1">
          <mxGeometry y="95" width="340" height="91" as="geometry" />
        </mxCell>
        <mxCell id="gXe3NrbdDyIHPAxdt47R-77" value="row 4, cell 5" style="shape=partialRectangle;html=1;whiteSpace=wrap;connectable=0;fillColor=none;top=0;left=0;bottom=0;right=0;overflow=hidden;" parent="gXe3NrbdDyIHPAxdt47R-76" vertex="1">
          <mxGeometry width="170" height="91" as="geometry">
            <mxRectangle width="170" height="91" as="alternateBounds" />
          </mxGeometry>
        </mxCell>
        <mxCell id="gXe3NrbdDyIHPAxdt47R-78" value="row 4, cell 6" style="shape=partialRectangle;html=1;whiteSpace=wrap;connectable=0;fillColor=none;top=0;left=0;bottom=0;right=0;overflow=hidden;" parent="gXe3NrbdDyIHPAxdt47R-76" vertex="1">
          <mxGeometry x="170" width="170" height="91" as="geometry">
            <mxRectangle width="170" height="91" as="alternateBounds" />
          </mxGeometry>
        </mxCell>
        <mxCell id="gXe3NrbdDyIHPAxdt47R-79" value="" style="shape=tableRow;horizontal=0;startSize=0;swimlaneHead=0;swimlaneBody=0;top=0;left=0;bottom=0;right=0;collapsible=0;dropTarget=0;fillColor=none;points=[[0,0.5],[1,0.5]];portConstraint=eastwest;" parent="gXe3NrbdDyIHPAxdt47R-72" vertex="1">
          <mxGeometry y="186" width="340" height="94" as="geometry" />
        </mxCell>
        <mxCell id="gXe3NrbdDyIHPAxdt47R-80" value="row 5, cell 5" style="shape=partialRectangle;html=1;whiteSpace=wrap;connectable=0;fillColor=none;top=0;left=0;bottom=0;right=0;overflow=hidden;" parent="gXe3NrbdDyIHPAxdt47R-79" vertex="1">
          <mxGeometry width="170" height="94" as="geometry">
            <mxRectangle width="170" height="94" as="alternateBounds" />
          </mxGeometry>
        </mxCell>
        <mxCell id="gXe3NrbdDyIHPAxdt47R-81" value="row 5, cell 6" style="shape=partialRectangle;html=1;whiteSpace=wrap;connectable=0;fillColor=none;top=0;left=0;bottom=0;right=0;overflow=hidden;" parent="gXe3NrbdDyIHPAxdt47R-79" vertex="1">
          <mxGeometry x="170" width="170" height="94" as="geometry">
            <mxRectangle width="170" height="94" as="alternateBounds" />
          </mxGeometry>
        </mxCell>
      </root>
    </mxGraphModel>
  </diagram>
  <diagram id="sHi_M0sh_teIeaK173fY" name="Page-3">
    <mxGraphModel dx="2508" dy="813" grid="1" gridSize="10" guides="1" tooltips="1" connect="1" arrows="1" fold="1" page="1" pageScale="1" pageWidth="850" pageHeight="1100" math="0" shadow="0">
      <root>
        <mxCell id="0" />
        <mxCell id="1" parent="0" />
        <mxCell id="YbU5IlwivGybLEt5W7lr-1" value="Window Title" style="strokeWidth=1;shadow=0;dashed=0;align=center;html=1;shape=mxgraph.mockup.containers.window;align=left;verticalAlign=top;spacingLeft=8;strokeColor2=#008cff;strokeColor3=#c4c4c4;fontColor=#666666;mainText=;fontSize=17;labelBackgroundColor=none;whiteSpace=wrap;" parent="1" vertex="1">
          <mxGeometry x="-290" y="90" width="1180" height="700" as="geometry" />
        </mxCell>
        <mxCell id="DfBqhGHv--BppsfNKJSR-1" value="" style="strokeWidth=1;shadow=0;dashed=0;align=center;html=1;shape=mxgraph.mockup.forms.rrect;rSize=5;strokeColor=#999999;fillColor=#ffffff;" parent="1" vertex="1">
          <mxGeometry x="-190" y="230" width="360" height="310" as="geometry" />
        </mxCell>
        <mxCell id="DfBqhGHv--BppsfNKJSR-2" value="October 2014" style="strokeWidth=1;shadow=0;dashed=0;align=center;html=1;shape=mxgraph.mockup.forms.anchor;fontColor=#999999;" parent="DfBqhGHv--BppsfNKJSR-1" vertex="1">
          <mxGeometry x="67.5" y="14.17142857142857" width="225" height="35.42857142857143" as="geometry" />
        </mxCell>
        <mxCell id="DfBqhGHv--BppsfNKJSR-3" value="&lt;" style="strokeWidth=1;shadow=0;dashed=0;align=center;html=1;shape=mxgraph.mockup.forms.rrect;rSize=4;strokeColor=#999999;fontColor=#008cff;fontSize=19;fontStyle=1;" parent="DfBqhGHv--BppsfNKJSR-1" vertex="1">
          <mxGeometry x="18" y="14.17142857142857" width="56.25" height="35.42857142857143" as="geometry" />
        </mxCell>
        <mxCell id="DfBqhGHv--BppsfNKJSR-4" value="&gt;" style="strokeWidth=1;shadow=0;dashed=0;align=center;html=1;shape=mxgraph.mockup.forms.rrect;rSize=4;strokeColor=#999999;fontColor=#008cff;fontSize=19;fontStyle=1;" parent="DfBqhGHv--BppsfNKJSR-1" vertex="1">
          <mxGeometry x="285.75" y="14.17142857142857" width="56.25" height="35.42857142857143" as="geometry" />
        </mxCell>
        <mxCell id="DfBqhGHv--BppsfNKJSR-5" value="Mo" style="strokeWidth=1;shadow=0;dashed=0;align=center;html=1;shape=mxgraph.mockup.forms.anchor;fontColor=#999999;" parent="DfBqhGHv--BppsfNKJSR-1" vertex="1">
          <mxGeometry x="22.5" y="49.599999999999994" width="45" height="35.42857142857143" as="geometry" />
        </mxCell>
        <mxCell id="DfBqhGHv--BppsfNKJSR-6" value="Tu" style="strokeWidth=1;shadow=0;dashed=0;align=center;html=1;shape=mxgraph.mockup.forms.anchor;fontColor=#999999;" parent="DfBqhGHv--BppsfNKJSR-1" vertex="1">
          <mxGeometry x="67.5" y="49.599999999999994" width="45" height="35.42857142857143" as="geometry" />
        </mxCell>
        <mxCell id="DfBqhGHv--BppsfNKJSR-7" value="We" style="strokeWidth=1;shadow=0;dashed=0;align=center;html=1;shape=mxgraph.mockup.forms.anchor;fontColor=#999999;" parent="DfBqhGHv--BppsfNKJSR-1" vertex="1">
          <mxGeometry x="112.5" y="49.599999999999994" width="45" height="35.42857142857143" as="geometry" />
        </mxCell>
        <mxCell id="DfBqhGHv--BppsfNKJSR-8" value="Th" style="strokeWidth=1;shadow=0;dashed=0;align=center;html=1;shape=mxgraph.mockup.forms.anchor;fontColor=#999999;" parent="DfBqhGHv--BppsfNKJSR-1" vertex="1">
          <mxGeometry x="157.5" y="49.599999999999994" width="45" height="35.42857142857143" as="geometry" />
        </mxCell>
        <mxCell id="DfBqhGHv--BppsfNKJSR-9" value="Fr" style="strokeWidth=1;shadow=0;dashed=0;align=center;html=1;shape=mxgraph.mockup.forms.anchor;fontColor=#999999;" parent="DfBqhGHv--BppsfNKJSR-1" vertex="1">
          <mxGeometry x="202.5" y="49.599999999999994" width="45" height="35.42857142857143" as="geometry" />
        </mxCell>
        <mxCell id="DfBqhGHv--BppsfNKJSR-10" value="Sa" style="strokeWidth=1;shadow=0;dashed=0;align=center;html=1;shape=mxgraph.mockup.forms.anchor;fontColor=#999999;" parent="DfBqhGHv--BppsfNKJSR-1" vertex="1">
          <mxGeometry x="247.5" y="49.599999999999994" width="45" height="35.42857142857143" as="geometry" />
        </mxCell>
        <mxCell id="DfBqhGHv--BppsfNKJSR-11" value="Su" style="strokeWidth=1;shadow=0;dashed=0;align=center;html=1;shape=mxgraph.mockup.forms.anchor;fontColor=#999999;" parent="DfBqhGHv--BppsfNKJSR-1" vertex="1">
          <mxGeometry x="292.5" y="49.599999999999994" width="45" height="35.42857142857143" as="geometry" />
        </mxCell>
        <mxCell id="DfBqhGHv--BppsfNKJSR-12" value="1" style="strokeWidth=1;shadow=0;dashed=0;align=center;html=1;shape=mxgraph.mockup.forms.rrect;rSize=0;strokeColor=#999999;fontColor=#999999;" parent="DfBqhGHv--BppsfNKJSR-1" vertex="1">
          <mxGeometry x="22.5" y="85.02857142857142" width="45" height="35.42857142857143" as="geometry" />
        </mxCell>
        <mxCell id="DfBqhGHv--BppsfNKJSR-13" value="2" style="strokeWidth=1;shadow=0;dashed=0;align=center;html=1;shape=mxgraph.mockup.forms.rrect;rSize=0;strokeColor=#999999;fontColor=#999999;" parent="DfBqhGHv--BppsfNKJSR-1" vertex="1">
          <mxGeometry x="67.5" y="85.02857142857142" width="45" height="35.42857142857143" as="geometry" />
        </mxCell>
        <mxCell id="DfBqhGHv--BppsfNKJSR-14" value="3" style="strokeWidth=1;shadow=0;dashed=0;align=center;html=1;shape=mxgraph.mockup.forms.rrect;rSize=0;strokeColor=#999999;fontColor=#999999;" parent="DfBqhGHv--BppsfNKJSR-1" vertex="1">
          <mxGeometry x="112.5" y="85.02857142857142" width="45" height="35.42857142857143" as="geometry" />
        </mxCell>
        <mxCell id="DfBqhGHv--BppsfNKJSR-15" value="4" style="strokeWidth=1;shadow=0;dashed=0;align=center;html=1;shape=mxgraph.mockup.forms.rrect;rSize=0;strokeColor=#999999;fontColor=#999999;" parent="DfBqhGHv--BppsfNKJSR-1" vertex="1">
          <mxGeometry x="157.5" y="85.02857142857142" width="45" height="35.42857142857143" as="geometry" />
        </mxCell>
        <mxCell id="DfBqhGHv--BppsfNKJSR-16" value="5" style="strokeWidth=1;shadow=0;dashed=0;align=center;html=1;shape=mxgraph.mockup.forms.rrect;rSize=0;strokeColor=#999999;fontColor=#999999;" parent="DfBqhGHv--BppsfNKJSR-1" vertex="1">
          <mxGeometry x="202.5" y="85.02857142857142" width="45" height="35.42857142857143" as="geometry" />
        </mxCell>
        <mxCell id="DfBqhGHv--BppsfNKJSR-17" value="6" style="strokeWidth=1;shadow=0;dashed=0;align=center;html=1;shape=mxgraph.mockup.forms.rrect;rSize=0;strokeColor=#999999;fontColor=#999999;" parent="DfBqhGHv--BppsfNKJSR-1" vertex="1">
          <mxGeometry x="247.5" y="85.02857142857142" width="45" height="35.42857142857143" as="geometry" />
        </mxCell>
        <mxCell id="DfBqhGHv--BppsfNKJSR-18" value="7" style="strokeWidth=1;shadow=0;dashed=0;align=center;html=1;shape=mxgraph.mockup.forms.rrect;rSize=0;strokeColor=#999999;fontColor=#999999;" parent="DfBqhGHv--BppsfNKJSR-1" vertex="1">
          <mxGeometry x="292.5" y="85.02857142857142" width="45" height="35.42857142857143" as="geometry" />
        </mxCell>
        <mxCell id="DfBqhGHv--BppsfNKJSR-19" value="8" style="strokeWidth=1;shadow=0;dashed=0;align=center;html=1;shape=mxgraph.mockup.forms.rrect;rSize=0;strokeColor=#999999;fontColor=#999999;" parent="DfBqhGHv--BppsfNKJSR-1" vertex="1">
          <mxGeometry x="22.5" y="120.45714285714286" width="45" height="35.42857142857143" as="geometry" />
        </mxCell>
        <mxCell id="DfBqhGHv--BppsfNKJSR-20" value="9" style="strokeWidth=1;shadow=0;dashed=0;align=center;html=1;shape=mxgraph.mockup.forms.rrect;rSize=0;strokeColor=#999999;fontColor=#999999;" parent="DfBqhGHv--BppsfNKJSR-1" vertex="1">
          <mxGeometry x="67.5" y="120.45714285714286" width="45" height="35.42857142857143" as="geometry" />
        </mxCell>
        <mxCell id="DfBqhGHv--BppsfNKJSR-21" value="10" style="strokeWidth=1;shadow=0;dashed=0;align=center;html=1;shape=mxgraph.mockup.forms.rrect;rSize=0;strokeColor=#999999;fontColor=#999999;" parent="DfBqhGHv--BppsfNKJSR-1" vertex="1">
          <mxGeometry x="112.5" y="120.45714285714286" width="45" height="35.42857142857143" as="geometry" />
        </mxCell>
        <mxCell id="DfBqhGHv--BppsfNKJSR-22" value="11" style="strokeWidth=1;shadow=0;dashed=0;align=center;html=1;shape=mxgraph.mockup.forms.rrect;rSize=0;strokeColor=#999999;fontColor=#999999;" parent="DfBqhGHv--BppsfNKJSR-1" vertex="1">
          <mxGeometry x="157.5" y="120.45714285714286" width="45" height="35.42857142857143" as="geometry" />
        </mxCell>
        <mxCell id="DfBqhGHv--BppsfNKJSR-23" value="12" style="strokeWidth=1;shadow=0;dashed=0;align=center;html=1;shape=mxgraph.mockup.forms.rrect;rSize=0;strokeColor=#999999;fontColor=#999999;" parent="DfBqhGHv--BppsfNKJSR-1" vertex="1">
          <mxGeometry x="202.5" y="120.45714285714286" width="45" height="35.42857142857143" as="geometry" />
        </mxCell>
        <mxCell id="DfBqhGHv--BppsfNKJSR-24" value="13" style="strokeWidth=1;shadow=0;dashed=0;align=center;html=1;shape=mxgraph.mockup.forms.rrect;rSize=0;strokeColor=#999999;fontColor=#999999;" parent="DfBqhGHv--BppsfNKJSR-1" vertex="1">
          <mxGeometry x="247.5" y="120.45714285714286" width="45" height="35.42857142857143" as="geometry" />
        </mxCell>
        <mxCell id="DfBqhGHv--BppsfNKJSR-25" value="14" style="strokeWidth=1;shadow=0;dashed=0;align=center;html=1;shape=mxgraph.mockup.forms.rrect;rSize=0;strokeColor=#999999;fontColor=#999999;" parent="DfBqhGHv--BppsfNKJSR-1" vertex="1">
          <mxGeometry x="292.5" y="120.45714285714286" width="45" height="35.42857142857143" as="geometry" />
        </mxCell>
        <mxCell id="DfBqhGHv--BppsfNKJSR-26" value="15" style="strokeWidth=1;shadow=0;dashed=0;align=center;html=1;shape=mxgraph.mockup.forms.rrect;rSize=0;strokeColor=#999999;fontColor=#999999;" parent="DfBqhGHv--BppsfNKJSR-1" vertex="1">
          <mxGeometry x="22.5" y="155.88571428571427" width="45" height="35.42857142857143" as="geometry" />
        </mxCell>
        <mxCell id="DfBqhGHv--BppsfNKJSR-27" value="16" style="strokeWidth=1;shadow=0;dashed=0;align=center;html=1;shape=mxgraph.mockup.forms.rrect;rSize=0;strokeColor=#999999;fontColor=#999999;" parent="DfBqhGHv--BppsfNKJSR-1" vertex="1">
          <mxGeometry x="67.5" y="155.88571428571427" width="45" height="35.42857142857143" as="geometry" />
        </mxCell>
        <mxCell id="DfBqhGHv--BppsfNKJSR-28" value="17" style="strokeWidth=1;shadow=0;dashed=0;align=center;html=1;shape=mxgraph.mockup.forms.rrect;rSize=0;strokeColor=#999999;fontColor=#999999;" parent="DfBqhGHv--BppsfNKJSR-1" vertex="1">
          <mxGeometry x="112.5" y="155.88571428571427" width="45" height="35.42857142857143" as="geometry" />
        </mxCell>
        <mxCell id="DfBqhGHv--BppsfNKJSR-29" value="18" style="strokeWidth=1;shadow=0;dashed=0;align=center;html=1;shape=mxgraph.mockup.forms.rrect;rSize=0;strokeColor=#999999;fontColor=#999999;" parent="DfBqhGHv--BppsfNKJSR-1" vertex="1">
          <mxGeometry x="157.5" y="155.88571428571427" width="45" height="35.42857142857143" as="geometry" />
        </mxCell>
        <mxCell id="DfBqhGHv--BppsfNKJSR-30" value="19" style="strokeWidth=1;shadow=0;dashed=0;align=center;html=1;shape=mxgraph.mockup.forms.rrect;rSize=0;strokeColor=#999999;fontColor=#999999;" parent="DfBqhGHv--BppsfNKJSR-1" vertex="1">
          <mxGeometry x="202.5" y="155.88571428571427" width="45" height="35.42857142857143" as="geometry" />
        </mxCell>
        <mxCell id="DfBqhGHv--BppsfNKJSR-31" value="20" style="strokeWidth=1;shadow=0;dashed=0;align=center;html=1;shape=mxgraph.mockup.forms.rrect;rSize=0;strokeColor=#999999;fontColor=#999999;" parent="DfBqhGHv--BppsfNKJSR-1" vertex="1">
          <mxGeometry x="247.5" y="155.88571428571427" width="45" height="35.42857142857143" as="geometry" />
        </mxCell>
        <mxCell id="DfBqhGHv--BppsfNKJSR-32" value="21" style="strokeWidth=1;shadow=0;dashed=0;align=center;html=1;shape=mxgraph.mockup.forms.rrect;rSize=0;strokeColor=#999999;fontColor=#999999;" parent="DfBqhGHv--BppsfNKJSR-1" vertex="1">
          <mxGeometry x="292.5" y="155.88571428571427" width="45" height="35.42857142857143" as="geometry" />
        </mxCell>
        <mxCell id="DfBqhGHv--BppsfNKJSR-33" value="22" style="strokeWidth=1;shadow=0;dashed=0;align=center;html=1;shape=mxgraph.mockup.forms.rrect;rSize=0;strokeColor=#999999;fontColor=#999999;" parent="DfBqhGHv--BppsfNKJSR-1" vertex="1">
          <mxGeometry x="22.5" y="191.31428571428572" width="45" height="35.42857142857143" as="geometry" />
        </mxCell>
        <mxCell id="DfBqhGHv--BppsfNKJSR-34" value="23" style="strokeWidth=1;shadow=0;dashed=0;align=center;html=1;shape=mxgraph.mockup.forms.rrect;rSize=0;strokeColor=#999999;fontColor=#999999;" parent="DfBqhGHv--BppsfNKJSR-1" vertex="1">
          <mxGeometry x="67.5" y="191.31428571428572" width="45" height="35.42857142857143" as="geometry" />
        </mxCell>
        <mxCell id="DfBqhGHv--BppsfNKJSR-35" value="25" style="strokeWidth=1;shadow=0;dashed=0;align=center;html=1;shape=mxgraph.mockup.forms.rrect;rSize=0;strokeColor=#999999;fontColor=#999999;" parent="DfBqhGHv--BppsfNKJSR-1" vertex="1">
          <mxGeometry x="157.5" y="191.31428571428572" width="45" height="35.42857142857143" as="geometry" />
        </mxCell>
        <mxCell id="DfBqhGHv--BppsfNKJSR-36" value="26" style="strokeWidth=1;shadow=0;dashed=0;align=center;html=1;shape=mxgraph.mockup.forms.rrect;rSize=0;strokeColor=#999999;fontColor=#999999;" parent="DfBqhGHv--BppsfNKJSR-1" vertex="1">
          <mxGeometry x="202.5" y="191.31428571428572" width="45" height="35.42857142857143" as="geometry" />
        </mxCell>
        <mxCell id="DfBqhGHv--BppsfNKJSR-37" value="27" style="strokeWidth=1;shadow=0;dashed=0;align=center;html=1;shape=mxgraph.mockup.forms.rrect;rSize=0;strokeColor=#999999;fontColor=#999999;" parent="DfBqhGHv--BppsfNKJSR-1" vertex="1">
          <mxGeometry x="247.5" y="191.31428571428572" width="45" height="35.42857142857143" as="geometry" />
        </mxCell>
        <mxCell id="DfBqhGHv--BppsfNKJSR-38" value="28" style="strokeWidth=1;shadow=0;dashed=0;align=center;html=1;shape=mxgraph.mockup.forms.rrect;rSize=0;strokeColor=#999999;fontColor=#999999;" parent="DfBqhGHv--BppsfNKJSR-1" vertex="1">
          <mxGeometry x="292.5" y="191.31428571428572" width="45" height="35.42857142857143" as="geometry" />
        </mxCell>
        <mxCell id="DfBqhGHv--BppsfNKJSR-39" value="29" style="strokeWidth=1;shadow=0;dashed=0;align=center;html=1;shape=mxgraph.mockup.forms.rrect;rSize=0;strokeColor=#999999;fontColor=#999999;" parent="DfBqhGHv--BppsfNKJSR-1" vertex="1">
          <mxGeometry x="22.5" y="226.74285714285713" width="45" height="35.42857142857143" as="geometry" />
        </mxCell>
        <mxCell id="DfBqhGHv--BppsfNKJSR-40" value="30" style="strokeWidth=1;shadow=0;dashed=0;align=center;html=1;shape=mxgraph.mockup.forms.rrect;rSize=0;strokeColor=#999999;fontColor=#999999;" parent="DfBqhGHv--BppsfNKJSR-1" vertex="1">
          <mxGeometry x="67.5" y="226.74285714285713" width="45" height="35.42857142857143" as="geometry" />
        </mxCell>
        <mxCell id="DfBqhGHv--BppsfNKJSR-41" value="31" style="strokeWidth=1;shadow=0;dashed=0;align=center;html=1;shape=mxgraph.mockup.forms.rrect;rSize=0;strokeColor=#999999;fontColor=#999999;" parent="DfBqhGHv--BppsfNKJSR-1" vertex="1">
          <mxGeometry x="112.5" y="226.74285714285713" width="45" height="35.42857142857143" as="geometry" />
        </mxCell>
        <mxCell id="DfBqhGHv--BppsfNKJSR-42" value="1" style="strokeWidth=1;shadow=0;dashed=0;align=center;html=1;shape=mxgraph.mockup.forms.rrect;rSize=0;strokeColor=#999999;fontColor=#999999;fillColor=#ddeeff;" parent="DfBqhGHv--BppsfNKJSR-1" vertex="1">
          <mxGeometry x="157.5" y="226.74285714285713" width="45" height="35.42857142857143" as="geometry" />
        </mxCell>
        <mxCell id="DfBqhGHv--BppsfNKJSR-43" value="2" style="strokeWidth=1;shadow=0;dashed=0;align=center;html=1;shape=mxgraph.mockup.forms.rrect;rSize=0;strokeColor=#999999;fontColor=#999999;fillColor=#ddeeff;" parent="DfBqhGHv--BppsfNKJSR-1" vertex="1">
          <mxGeometry x="202.5" y="226.74285714285713" width="45" height="35.42857142857143" as="geometry" />
        </mxCell>
        <mxCell id="DfBqhGHv--BppsfNKJSR-44" value="3" style="strokeWidth=1;shadow=0;dashed=0;align=center;html=1;shape=mxgraph.mockup.forms.rrect;rSize=0;strokeColor=#999999;fontColor=#999999;fillColor=#ddeeff;" parent="DfBqhGHv--BppsfNKJSR-1" vertex="1">
          <mxGeometry x="247.5" y="226.74285714285713" width="45" height="35.42857142857143" as="geometry" />
        </mxCell>
        <mxCell id="DfBqhGHv--BppsfNKJSR-45" value="4" style="strokeWidth=1;shadow=0;dashed=0;align=center;html=1;shape=mxgraph.mockup.forms.rrect;rSize=0;strokeColor=#999999;fontColor=#999999;fillColor=#ddeeff;" parent="DfBqhGHv--BppsfNKJSR-1" vertex="1">
          <mxGeometry x="292.5" y="226.74285714285713" width="45" height="35.42857142857143" as="geometry" />
        </mxCell>
        <mxCell id="DfBqhGHv--BppsfNKJSR-46" value="5" style="strokeWidth=1;shadow=0;dashed=0;align=center;html=1;shape=mxgraph.mockup.forms.rrect;rSize=0;strokeColor=#999999;fontColor=#999999;fillColor=#ddeeff;" parent="DfBqhGHv--BppsfNKJSR-1" vertex="1">
          <mxGeometry x="22.5" y="262.1714285714286" width="45" height="35.42857142857143" as="geometry" />
        </mxCell>
        <mxCell id="DfBqhGHv--BppsfNKJSR-47" value="6" style="strokeWidth=1;shadow=0;dashed=0;align=center;html=1;shape=mxgraph.mockup.forms.rrect;rSize=0;strokeColor=#999999;fontColor=#999999;fillColor=#ddeeff;" parent="DfBqhGHv--BppsfNKJSR-1" vertex="1">
          <mxGeometry x="67.5" y="262.1714285714286" width="45" height="35.42857142857143" as="geometry" />
        </mxCell>
        <mxCell id="DfBqhGHv--BppsfNKJSR-48" value="7" style="strokeWidth=1;shadow=0;dashed=0;align=center;html=1;shape=mxgraph.mockup.forms.rrect;rSize=0;strokeColor=#999999;fontColor=#999999;fillColor=#ddeeff;" parent="DfBqhGHv--BppsfNKJSR-1" vertex="1">
          <mxGeometry x="112.5" y="262.1714285714286" width="45" height="35.42857142857143" as="geometry" />
        </mxCell>
        <mxCell id="DfBqhGHv--BppsfNKJSR-49" value="8" style="strokeWidth=1;shadow=0;dashed=0;align=center;html=1;shape=mxgraph.mockup.forms.rrect;rSize=0;strokeColor=#999999;fontColor=#999999;fillColor=#ddeeff;" parent="DfBqhGHv--BppsfNKJSR-1" vertex="1">
          <mxGeometry x="157.5" y="262.1714285714286" width="45" height="35.42857142857143" as="geometry" />
        </mxCell>
        <mxCell id="DfBqhGHv--BppsfNKJSR-50" value="9" style="strokeWidth=1;shadow=0;dashed=0;align=center;html=1;shape=mxgraph.mockup.forms.rrect;rSize=0;strokeColor=#999999;fontColor=#999999;fillColor=#ddeeff;" parent="DfBqhGHv--BppsfNKJSR-1" vertex="1">
          <mxGeometry x="202.5" y="262.1714285714286" width="45" height="35.42857142857143" as="geometry" />
        </mxCell>
        <mxCell id="DfBqhGHv--BppsfNKJSR-51" value="10" style="strokeWidth=1;shadow=0;dashed=0;align=center;html=1;shape=mxgraph.mockup.forms.rrect;rSize=0;strokeColor=#999999;fontColor=#999999;fillColor=#ddeeff;" parent="DfBqhGHv--BppsfNKJSR-1" vertex="1">
          <mxGeometry x="247.5" y="262.1714285714286" width="45" height="35.42857142857143" as="geometry" />
        </mxCell>
        <mxCell id="DfBqhGHv--BppsfNKJSR-52" value="11" style="strokeWidth=1;shadow=0;dashed=0;align=center;html=1;shape=mxgraph.mockup.forms.rrect;rSize=0;strokeColor=#999999;fontColor=#999999;fillColor=#ddeeff;" parent="DfBqhGHv--BppsfNKJSR-1" vertex="1">
          <mxGeometry x="292.5" y="262.1714285714286" width="45" height="35.42857142857143" as="geometry" />
        </mxCell>
        <mxCell id="DfBqhGHv--BppsfNKJSR-53" value="24" style="strokeWidth=1;shadow=0;dashed=0;align=center;html=1;shape=mxgraph.mockup.forms.rrect;rSize=0;strokeColor=#ff0000;fontColor=#ffffff;strokeWidth=2;fillColor=#008cff;" parent="DfBqhGHv--BppsfNKJSR-1" vertex="1">
          <mxGeometry x="112.5" y="191.31428571428572" width="45" height="35.42857142857143" as="geometry" />
        </mxCell>
        <mxCell id="VJ_NWy7fn3V0AFdeSM-L-1" value="" style="strokeWidth=1;shadow=0;dashed=0;align=center;html=1;shape=mxgraph.mockup.forms.rrect;rSize=0;strokeColor=#999999;" parent="1" vertex="1">
          <mxGeometry x="-290" y="120" width="498" height="30" as="geometry" />
        </mxCell>
        <mxCell id="VJ_NWy7fn3V0AFdeSM-L-2" value="File" style="strokeColor=inherit;fillColor=inherit;gradientColor=inherit;strokeWidth=1;shadow=0;dashed=0;align=center;html=1;shape=mxgraph.mockup.forms.rrect;rSize=0;fontSize=17;fontColor=#666666;whiteSpace=wrap;" parent="VJ_NWy7fn3V0AFdeSM-L-1" vertex="1">
          <mxGeometry width="83" height="30" as="geometry" />
        </mxCell>
        <mxCell id="VJ_NWy7fn3V0AFdeSM-L-3" value="Edit" style="strokeColor=inherit;fillColor=inherit;gradientColor=inherit;strokeWidth=1;shadow=0;dashed=0;align=center;html=1;shape=mxgraph.mockup.forms.rrect;rSize=0;fontSize=17;fontColor=#666666;whiteSpace=wrap;" parent="VJ_NWy7fn3V0AFdeSM-L-1" vertex="1">
          <mxGeometry x="83" width="83" height="30" as="geometry" />
        </mxCell>
        <mxCell id="VJ_NWy7fn3V0AFdeSM-L-4" value="Options" style="strokeColor=inherit;fillColor=inherit;gradientColor=inherit;strokeWidth=1;shadow=0;dashed=0;align=center;html=1;shape=mxgraph.mockup.forms.rrect;rSize=0;fontSize=17;fontColor=#666666;whiteSpace=wrap;" parent="VJ_NWy7fn3V0AFdeSM-L-1" vertex="1">
          <mxGeometry x="166" width="83" height="30" as="geometry" />
        </mxCell>
        <mxCell id="VJ_NWy7fn3V0AFdeSM-L-5" value="Tools" style="strokeColor=inherit;fillColor=inherit;gradientColor=inherit;strokeWidth=1;shadow=0;dashed=0;align=center;html=1;shape=mxgraph.mockup.forms.rrect;rSize=0;fontSize=17;fontColor=#666666;whiteSpace=wrap;" parent="VJ_NWy7fn3V0AFdeSM-L-1" vertex="1">
          <mxGeometry x="249" width="83" height="30" as="geometry" />
        </mxCell>
        <mxCell id="VJ_NWy7fn3V0AFdeSM-L-6" value="Window" style="strokeColor=inherit;fillColor=inherit;gradientColor=inherit;strokeWidth=1;shadow=0;dashed=0;align=center;html=1;shape=mxgraph.mockup.forms.rrect;rSize=0;fontSize=17;fontColor=#666666;whiteSpace=wrap;" parent="VJ_NWy7fn3V0AFdeSM-L-1" vertex="1">
          <mxGeometry x="332" width="83" height="30" as="geometry" />
        </mxCell>
        <mxCell id="VJ_NWy7fn3V0AFdeSM-L-7" value="Help" style="strokeColor=inherit;fillColor=inherit;gradientColor=inherit;strokeWidth=1;shadow=0;dashed=0;align=center;html=1;shape=mxgraph.mockup.forms.rrect;rSize=0;fontSize=17;fontColor=#666666;whiteSpace=wrap;" parent="VJ_NWy7fn3V0AFdeSM-L-1" vertex="1">
          <mxGeometry x="415" width="83" height="30" as="geometry" />
        </mxCell>
        <mxCell id="jRZxp-JZbvrUD1V-KhrK-1" value="Search" style="strokeWidth=1;shadow=0;dashed=0;align=center;html=1;shape=mxgraph.mockup.forms.searchBox;strokeColor=#999999;mainText=;strokeColor2=#008cff;fontColor=#666666;fontSize=17;align=left;spacingLeft=3;whiteSpace=wrap;" parent="1" vertex="1">
          <mxGeometry x="230" y="230" width="540" height="30" as="geometry" />
        </mxCell>
        <mxCell id="OZsuigYLIJxXfce0Y-1D-31" value="" style="group" parent="1" vertex="1" connectable="0">
          <mxGeometry x="230" y="340" width="540" height="200" as="geometry" />
        </mxCell>
        <mxCell id="OZsuigYLIJxXfce0Y-1D-1" value="" style="shape=table;html=1;whiteSpace=wrap;startSize=0;container=1;collapsible=0;childLayout=tableLayout;strokeWidth=2;movable=1;resizable=1;rotatable=1;deletable=1;editable=1;locked=0;connectable=1;" parent="OZsuigYLIJxXfce0Y-1D-31" vertex="1">
          <mxGeometry width="183.60000000000002" height="200" as="geometry" />
        </mxCell>
        <mxCell id="OZsuigYLIJxXfce0Y-1D-2" value="" style="shape=tableRow;horizontal=0;startSize=0;swimlaneHead=0;swimlaneBody=0;top=0;left=0;bottom=0;right=0;collapsible=0;dropTarget=0;fillColor=none;points=[[0,0.5],[1,0.5]];portConstraint=eastwest;movable=1;resizable=1;rotatable=1;deletable=1;editable=1;locked=0;connectable=1;" parent="OZsuigYLIJxXfce0Y-1D-1" vertex="1">
          <mxGeometry width="183.60000000000002" height="68" as="geometry" />
        </mxCell>
        <mxCell id="OZsuigYLIJxXfce0Y-1D-3" value="Column 1" style="shape=partialRectangle;html=1;whiteSpace=wrap;connectable=1;fillColor=none;top=0;left=0;bottom=0;right=0;overflow=hidden;fontStyle=1;movable=1;resizable=1;rotatable=1;deletable=1;editable=1;locked=0;" parent="OZsuigYLIJxXfce0Y-1D-2" vertex="1">
          <mxGeometry width="92" height="68" as="geometry">
            <mxRectangle width="92" height="68" as="alternateBounds" />
          </mxGeometry>
        </mxCell>
        <mxCell id="OZsuigYLIJxXfce0Y-1D-4" value="Column 2" style="shape=partialRectangle;html=1;whiteSpace=wrap;connectable=1;fillColor=none;top=0;left=0;bottom=0;right=0;overflow=hidden;fontStyle=1;movable=1;resizable=1;rotatable=1;deletable=1;editable=1;locked=0;" parent="OZsuigYLIJxXfce0Y-1D-2" vertex="1">
          <mxGeometry x="92" width="92" height="68" as="geometry">
            <mxRectangle width="92" height="68" as="alternateBounds" />
          </mxGeometry>
        </mxCell>
        <mxCell id="OZsuigYLIJxXfce0Y-1D-5" value="" style="shape=tableRow;horizontal=0;startSize=0;swimlaneHead=0;swimlaneBody=0;top=0;left=0;bottom=0;right=0;collapsible=0;dropTarget=0;fillColor=none;points=[[0,0.5],[1,0.5]];portConstraint=eastwest;movable=1;resizable=1;rotatable=1;deletable=1;editable=1;locked=0;connectable=1;" parent="OZsuigYLIJxXfce0Y-1D-1" vertex="1">
          <mxGeometry y="68" width="183.60000000000002" height="65" as="geometry" />
        </mxCell>
        <mxCell id="OZsuigYLIJxXfce0Y-1D-6" value="row 1, cell 1" style="shape=partialRectangle;html=1;whiteSpace=wrap;connectable=1;fillColor=none;top=0;left=0;bottom=0;right=0;overflow=hidden;movable=1;resizable=1;rotatable=1;deletable=1;editable=1;locked=0;" parent="OZsuigYLIJxXfce0Y-1D-5" vertex="1">
          <mxGeometry width="92" height="65" as="geometry">
            <mxRectangle width="92" height="65" as="alternateBounds" />
          </mxGeometry>
        </mxCell>
        <mxCell id="OZsuigYLIJxXfce0Y-1D-7" value="row 1, cell 2" style="shape=partialRectangle;html=1;whiteSpace=wrap;connectable=1;fillColor=none;top=0;left=0;bottom=0;right=0;overflow=hidden;movable=1;resizable=1;rotatable=1;deletable=1;editable=1;locked=0;" parent="OZsuigYLIJxXfce0Y-1D-5" vertex="1">
          <mxGeometry x="92" width="92" height="65" as="geometry">
            <mxRectangle width="92" height="65" as="alternateBounds" />
          </mxGeometry>
        </mxCell>
        <mxCell id="OZsuigYLIJxXfce0Y-1D-8" value="" style="shape=tableRow;horizontal=0;startSize=0;swimlaneHead=0;swimlaneBody=0;top=0;left=0;bottom=0;right=0;collapsible=0;dropTarget=0;fillColor=none;points=[[0,0.5],[1,0.5]];portConstraint=eastwest;movable=1;resizable=1;rotatable=1;deletable=1;editable=1;locked=0;connectable=1;" parent="OZsuigYLIJxXfce0Y-1D-1" vertex="1">
          <mxGeometry y="133" width="183.60000000000002" height="67" as="geometry" />
        </mxCell>
        <mxCell id="OZsuigYLIJxXfce0Y-1D-9" value="row 2, cell 1" style="shape=partialRectangle;html=1;whiteSpace=wrap;connectable=1;fillColor=none;top=0;left=0;bottom=0;right=0;overflow=hidden;movable=1;resizable=1;rotatable=1;deletable=1;editable=1;locked=0;" parent="OZsuigYLIJxXfce0Y-1D-8" vertex="1">
          <mxGeometry width="92" height="67" as="geometry">
            <mxRectangle width="92" height="67" as="alternateBounds" />
          </mxGeometry>
        </mxCell>
        <mxCell id="OZsuigYLIJxXfce0Y-1D-10" value="row 2, cell 2" style="shape=partialRectangle;html=1;whiteSpace=wrap;connectable=1;fillColor=none;top=0;left=0;bottom=0;right=0;overflow=hidden;movable=1;resizable=1;rotatable=1;deletable=1;editable=1;locked=0;" parent="OZsuigYLIJxXfce0Y-1D-8" vertex="1">
          <mxGeometry x="92" width="92" height="67" as="geometry">
            <mxRectangle width="92" height="67" as="alternateBounds" />
          </mxGeometry>
        </mxCell>
        <mxCell id="OZsuigYLIJxXfce0Y-1D-11" value="" style="shape=table;html=1;whiteSpace=wrap;startSize=0;container=1;collapsible=0;childLayout=tableLayout;strokeWidth=2;movable=1;resizable=1;rotatable=1;deletable=1;editable=1;locked=0;connectable=1;" parent="OZsuigYLIJxXfce0Y-1D-31" vertex="1">
          <mxGeometry x="183.60000000000002" width="183.60000000000002" height="200" as="geometry" />
        </mxCell>
        <mxCell id="OZsuigYLIJxXfce0Y-1D-12" value="" style="shape=tableRow;horizontal=0;startSize=0;swimlaneHead=0;swimlaneBody=0;top=0;left=0;bottom=0;right=0;collapsible=0;dropTarget=0;fillColor=none;points=[[0,0.5],[1,0.5]];portConstraint=eastwest;movable=1;resizable=1;rotatable=1;deletable=1;editable=1;locked=0;connectable=1;" parent="OZsuigYLIJxXfce0Y-1D-11" vertex="1">
          <mxGeometry width="183.60000000000002" height="68" as="geometry" />
        </mxCell>
        <mxCell id="OZsuigYLIJxXfce0Y-1D-13" value="Column 3" style="shape=partialRectangle;html=1;whiteSpace=wrap;connectable=1;fillColor=none;top=0;left=0;bottom=0;right=0;overflow=hidden;fontStyle=1;movable=1;resizable=1;rotatable=1;deletable=1;editable=1;locked=0;" parent="OZsuigYLIJxXfce0Y-1D-12" vertex="1">
          <mxGeometry width="92" height="68" as="geometry">
            <mxRectangle width="92" height="68" as="alternateBounds" />
          </mxGeometry>
        </mxCell>
        <mxCell id="OZsuigYLIJxXfce0Y-1D-14" value="Column 4" style="shape=partialRectangle;html=1;whiteSpace=wrap;connectable=1;fillColor=none;top=0;left=0;bottom=0;right=0;overflow=hidden;fontStyle=1;movable=1;resizable=1;rotatable=1;deletable=1;editable=1;locked=0;" parent="OZsuigYLIJxXfce0Y-1D-12" vertex="1">
          <mxGeometry x="92" width="92" height="68" as="geometry">
            <mxRectangle width="92" height="68" as="alternateBounds" />
          </mxGeometry>
        </mxCell>
        <mxCell id="OZsuigYLIJxXfce0Y-1D-15" value="" style="shape=tableRow;horizontal=0;startSize=0;swimlaneHead=0;swimlaneBody=0;top=0;left=0;bottom=0;right=0;collapsible=0;dropTarget=0;fillColor=none;points=[[0,0.5],[1,0.5]];portConstraint=eastwest;movable=1;resizable=1;rotatable=1;deletable=1;editable=1;locked=0;connectable=1;" parent="OZsuigYLIJxXfce0Y-1D-11" vertex="1">
          <mxGeometry y="68" width="183.60000000000002" height="65" as="geometry" />
        </mxCell>
        <mxCell id="OZsuigYLIJxXfce0Y-1D-16" value="row 1, cell 3" style="shape=partialRectangle;html=1;whiteSpace=wrap;connectable=1;fillColor=none;top=0;left=0;bottom=0;right=0;overflow=hidden;movable=1;resizable=1;rotatable=1;deletable=1;editable=1;locked=0;" parent="OZsuigYLIJxXfce0Y-1D-15" vertex="1">
          <mxGeometry width="92" height="65" as="geometry">
            <mxRectangle width="92" height="65" as="alternateBounds" />
          </mxGeometry>
        </mxCell>
        <mxCell id="OZsuigYLIJxXfce0Y-1D-17" value="row 1, cell 3" style="shape=partialRectangle;html=1;whiteSpace=wrap;connectable=1;fillColor=none;top=0;left=0;bottom=0;right=0;overflow=hidden;movable=1;resizable=1;rotatable=1;deletable=1;editable=1;locked=0;" parent="OZsuigYLIJxXfce0Y-1D-15" vertex="1">
          <mxGeometry x="92" width="92" height="65" as="geometry">
            <mxRectangle width="92" height="65" as="alternateBounds" />
          </mxGeometry>
        </mxCell>
        <mxCell id="OZsuigYLIJxXfce0Y-1D-18" value="" style="shape=tableRow;horizontal=0;startSize=0;swimlaneHead=0;swimlaneBody=0;top=0;left=0;bottom=0;right=0;collapsible=0;dropTarget=0;fillColor=none;points=[[0,0.5],[1,0.5]];portConstraint=eastwest;movable=1;resizable=1;rotatable=1;deletable=1;editable=1;locked=0;connectable=1;" parent="OZsuigYLIJxXfce0Y-1D-11" vertex="1">
          <mxGeometry y="133" width="183.60000000000002" height="67" as="geometry" />
        </mxCell>
        <mxCell id="OZsuigYLIJxXfce0Y-1D-19" value="row 2, cell 3" style="shape=partialRectangle;html=1;whiteSpace=wrap;connectable=1;fillColor=none;top=0;left=0;bottom=0;right=0;overflow=hidden;movable=1;resizable=1;rotatable=1;deletable=1;editable=1;locked=0;" parent="OZsuigYLIJxXfce0Y-1D-18" vertex="1">
          <mxGeometry width="92" height="67" as="geometry">
            <mxRectangle width="92" height="67" as="alternateBounds" />
          </mxGeometry>
        </mxCell>
        <mxCell id="OZsuigYLIJxXfce0Y-1D-20" value="row 2, cell 4" style="shape=partialRectangle;html=1;whiteSpace=wrap;connectable=1;fillColor=none;top=0;left=0;bottom=0;right=0;overflow=hidden;movable=1;resizable=1;rotatable=1;deletable=1;editable=1;locked=0;" parent="OZsuigYLIJxXfce0Y-1D-18" vertex="1">
          <mxGeometry x="92" width="92" height="67" as="geometry">
            <mxRectangle width="92" height="67" as="alternateBounds" />
          </mxGeometry>
        </mxCell>
        <mxCell id="OZsuigYLIJxXfce0Y-1D-21" value="" style="shape=table;html=1;whiteSpace=wrap;startSize=0;container=1;collapsible=0;childLayout=tableLayout;strokeWidth=2;movable=1;resizable=1;rotatable=1;deletable=1;editable=1;locked=0;connectable=1;" parent="OZsuigYLIJxXfce0Y-1D-31" vertex="1">
          <mxGeometry x="367.20000000000005" width="172.8" height="200" as="geometry" />
        </mxCell>
        <mxCell id="OZsuigYLIJxXfce0Y-1D-22" value="" style="shape=tableRow;horizontal=0;startSize=0;swimlaneHead=0;swimlaneBody=0;top=0;left=0;bottom=0;right=0;collapsible=0;dropTarget=0;fillColor=none;points=[[0,0.5],[1,0.5]];portConstraint=eastwest;movable=1;resizable=1;rotatable=1;deletable=1;editable=1;locked=0;connectable=1;" parent="OZsuigYLIJxXfce0Y-1D-21" vertex="1">
          <mxGeometry width="172.8" height="68" as="geometry" />
        </mxCell>
        <mxCell id="OZsuigYLIJxXfce0Y-1D-23" value="Column 5" style="shape=partialRectangle;html=1;whiteSpace=wrap;connectable=1;fillColor=none;top=0;left=0;bottom=0;right=0;overflow=hidden;fontStyle=1;movable=1;resizable=1;rotatable=1;deletable=1;editable=1;locked=0;" parent="OZsuigYLIJxXfce0Y-1D-22" vertex="1">
          <mxGeometry width="86" height="68" as="geometry">
            <mxRectangle width="86" height="68" as="alternateBounds" />
          </mxGeometry>
        </mxCell>
        <mxCell id="OZsuigYLIJxXfce0Y-1D-24" value="Column 6" style="shape=partialRectangle;html=1;whiteSpace=wrap;connectable=1;fillColor=none;top=0;left=0;bottom=0;right=0;overflow=hidden;fontStyle=1;movable=1;resizable=1;rotatable=1;deletable=1;editable=1;locked=0;" parent="OZsuigYLIJxXfce0Y-1D-22" vertex="1">
          <mxGeometry x="86" width="87" height="68" as="geometry">
            <mxRectangle width="87" height="68" as="alternateBounds" />
          </mxGeometry>
        </mxCell>
        <mxCell id="OZsuigYLIJxXfce0Y-1D-25" value="" style="shape=tableRow;horizontal=0;startSize=0;swimlaneHead=0;swimlaneBody=0;top=0;left=0;bottom=0;right=0;collapsible=0;dropTarget=0;fillColor=none;points=[[0,0.5],[1,0.5]];portConstraint=eastwest;movable=1;resizable=1;rotatable=1;deletable=1;editable=1;locked=0;connectable=1;" parent="OZsuigYLIJxXfce0Y-1D-21" vertex="1">
          <mxGeometry y="68" width="172.8" height="65" as="geometry" />
        </mxCell>
        <mxCell id="OZsuigYLIJxXfce0Y-1D-26" value="row 1, cell 4" style="shape=partialRectangle;html=1;whiteSpace=wrap;connectable=1;fillColor=none;top=0;left=0;bottom=0;right=0;overflow=hidden;movable=1;resizable=1;rotatable=1;deletable=1;editable=1;locked=0;" parent="OZsuigYLIJxXfce0Y-1D-25" vertex="1">
          <mxGeometry width="86" height="65" as="geometry">
            <mxRectangle width="86" height="65" as="alternateBounds" />
          </mxGeometry>
        </mxCell>
        <mxCell id="OZsuigYLIJxXfce0Y-1D-27" value="row 1, cell 5" style="shape=partialRectangle;html=1;whiteSpace=wrap;connectable=1;fillColor=none;top=0;left=0;bottom=0;right=0;overflow=hidden;movable=1;resizable=1;rotatable=1;deletable=1;editable=1;locked=0;" parent="OZsuigYLIJxXfce0Y-1D-25" vertex="1">
          <mxGeometry x="86" width="87" height="65" as="geometry">
            <mxRectangle width="87" height="65" as="alternateBounds" />
          </mxGeometry>
        </mxCell>
        <mxCell id="OZsuigYLIJxXfce0Y-1D-28" value="" style="shape=tableRow;horizontal=0;startSize=0;swimlaneHead=0;swimlaneBody=0;top=0;left=0;bottom=0;right=0;collapsible=0;dropTarget=0;fillColor=none;points=[[0,0.5],[1,0.5]];portConstraint=eastwest;movable=1;resizable=1;rotatable=1;deletable=1;editable=1;locked=0;connectable=1;" parent="OZsuigYLIJxXfce0Y-1D-21" vertex="1">
          <mxGeometry y="133" width="172.8" height="67" as="geometry" />
        </mxCell>
        <mxCell id="OZsuigYLIJxXfce0Y-1D-29" value="row 2, cell 5" style="shape=partialRectangle;html=1;whiteSpace=wrap;connectable=1;fillColor=none;top=0;left=0;bottom=0;right=0;overflow=hidden;movable=1;resizable=1;rotatable=1;deletable=1;editable=1;locked=0;" parent="OZsuigYLIJxXfce0Y-1D-28" vertex="1">
          <mxGeometry width="86" height="67" as="geometry">
            <mxRectangle width="86" height="67" as="alternateBounds" />
          </mxGeometry>
        </mxCell>
        <mxCell id="OZsuigYLIJxXfce0Y-1D-30" value="row 2, cell 6" style="shape=partialRectangle;html=1;whiteSpace=wrap;connectable=1;fillColor=none;top=0;left=0;bottom=0;right=0;overflow=hidden;movable=1;resizable=1;rotatable=1;deletable=1;editable=1;locked=0;" parent="OZsuigYLIJxXfce0Y-1D-28" vertex="1">
          <mxGeometry x="86" width="87" height="67" as="geometry">
            <mxRectangle width="87" height="67" as="alternateBounds" />
          </mxGeometry>
        </mxCell>
      </root>
    </mxGraphModel>
  </diagram>
  <diagram id="-t4QC-XH-f1jS59C1qu_" name="Page-5">
    <mxGraphModel dx="2058" dy="1213" grid="1" gridSize="10" guides="1" tooltips="1" connect="1" arrows="1" fold="1" page="0" pageScale="1" pageWidth="850" pageHeight="1100" math="0" shadow="0">
      <root>
        <mxCell id="0" />
        <mxCell id="1" parent="0" />
        <mxCell id="HRxqS-8rSVSlIaRoMHCh-1" value="Window Title" style="strokeWidth=1;shadow=0;dashed=0;align=center;html=1;shape=mxgraph.mockup.containers.window;align=left;verticalAlign=top;spacingLeft=8;strokeColor2=#008cff;strokeColor3=#c4c4c4;fontColor=#666666;mainText=;fontSize=17;labelBackgroundColor=none;whiteSpace=wrap;" parent="1" vertex="1">
          <mxGeometry x="-390" y="-280" width="1180" height="700" as="geometry" />
        </mxCell>
        <mxCell id="HRxqS-8rSVSlIaRoMHCh-55" value="" style="strokeWidth=1;shadow=0;dashed=0;align=center;html=1;shape=mxgraph.mockup.forms.rrect;rSize=0;strokeColor=#999999;" parent="1" vertex="1">
          <mxGeometry x="-390" y="-250" width="498" height="30" as="geometry" />
        </mxCell>
        <mxCell id="HRxqS-8rSVSlIaRoMHCh-56" value="File" style="strokeColor=inherit;fillColor=inherit;gradientColor=inherit;strokeWidth=1;shadow=0;dashed=0;align=center;html=1;shape=mxgraph.mockup.forms.rrect;rSize=0;fontSize=17;fontColor=#666666;whiteSpace=wrap;" parent="HRxqS-8rSVSlIaRoMHCh-55" vertex="1">
          <mxGeometry width="83" height="30" as="geometry" />
        </mxCell>
        <mxCell id="HRxqS-8rSVSlIaRoMHCh-57" value="Edit" style="strokeColor=inherit;fillColor=inherit;gradientColor=inherit;strokeWidth=1;shadow=0;dashed=0;align=center;html=1;shape=mxgraph.mockup.forms.rrect;rSize=0;fontSize=17;fontColor=#666666;whiteSpace=wrap;" parent="HRxqS-8rSVSlIaRoMHCh-55" vertex="1">
          <mxGeometry x="83" width="83" height="30" as="geometry" />
        </mxCell>
        <mxCell id="HRxqS-8rSVSlIaRoMHCh-58" value="Options" style="strokeColor=inherit;fillColor=inherit;gradientColor=inherit;strokeWidth=1;shadow=0;dashed=0;align=center;html=1;shape=mxgraph.mockup.forms.rrect;rSize=0;fontSize=17;fontColor=#666666;whiteSpace=wrap;" parent="HRxqS-8rSVSlIaRoMHCh-55" vertex="1">
          <mxGeometry x="166" width="83" height="30" as="geometry" />
        </mxCell>
        <mxCell id="HRxqS-8rSVSlIaRoMHCh-59" value="Tools" style="strokeColor=inherit;fillColor=inherit;gradientColor=inherit;strokeWidth=1;shadow=0;dashed=0;align=center;html=1;shape=mxgraph.mockup.forms.rrect;rSize=0;fontSize=17;fontColor=#666666;whiteSpace=wrap;" parent="HRxqS-8rSVSlIaRoMHCh-55" vertex="1">
          <mxGeometry x="249" width="83" height="30" as="geometry" />
        </mxCell>
        <mxCell id="HRxqS-8rSVSlIaRoMHCh-60" value="Window" style="strokeColor=inherit;fillColor=inherit;gradientColor=inherit;strokeWidth=1;shadow=0;dashed=0;align=center;html=1;shape=mxgraph.mockup.forms.rrect;rSize=0;fontSize=17;fontColor=#666666;whiteSpace=wrap;" parent="HRxqS-8rSVSlIaRoMHCh-55" vertex="1">
          <mxGeometry x="332" width="83" height="30" as="geometry" />
        </mxCell>
        <mxCell id="HRxqS-8rSVSlIaRoMHCh-61" value="Help" style="strokeColor=inherit;fillColor=inherit;gradientColor=inherit;strokeWidth=1;shadow=0;dashed=0;align=center;html=1;shape=mxgraph.mockup.forms.rrect;rSize=0;fontSize=17;fontColor=#666666;whiteSpace=wrap;" parent="HRxqS-8rSVSlIaRoMHCh-55" vertex="1">
          <mxGeometry x="415" width="83" height="30" as="geometry" />
        </mxCell>
        <mxCell id="_KH7z-mZNgkbnXynQg-t-1" value="" style="whiteSpace=wrap;html=1;aspect=fixed;" parent="1" vertex="1">
          <mxGeometry x="150" y="-220" width="640" height="640" as="geometry" />
        </mxCell>
        <mxCell id="HRxqS-8rSVSlIaRoMHCh-94" value="" style="verticalLabelPosition=bottom;shadow=0;dashed=0;align=center;html=1;verticalAlign=top;strokeWidth=1;shape=mxgraph.mockup.graphics.columnChart;strokeColor=none;strokeColor2=none;strokeColor3=#666666;fillColor2=#008cff;fillColor3=#dddddd;" parent="1" vertex="1">
          <mxGeometry x="290" y="-50" width="400" height="200" as="geometry" />
        </mxCell>
        <mxCell id="_KH7z-mZNgkbnXynQg-t-3" value="" style="rounded=0;whiteSpace=wrap;html=1;" parent="1" vertex="1">
          <mxGeometry x="-390" y="-220" width="540" height="640" as="geometry" />
        </mxCell>
        <mxCell id="_KH7z-mZNgkbnXynQg-t-4" value="" style="strokeWidth=1;shadow=0;dashed=0;align=center;html=1;shape=mxgraph.mockup.forms.rrect;rSize=5;strokeColor=#999999;fillColor=#ffffff;" parent="1" vertex="1">
          <mxGeometry x="-290" y="-130" width="330" height="330" as="geometry" />
        </mxCell>
        <mxCell id="_KH7z-mZNgkbnXynQg-t-5" value="October 2014" style="strokeWidth=1;shadow=0;dashed=0;align=center;html=1;shape=mxgraph.mockup.forms.anchor;fontColor=#999999;" parent="_KH7z-mZNgkbnXynQg-t-4" vertex="1">
          <mxGeometry x="61.875" y="15.085714285714285" width="206.25" height="37.714285714285715" as="geometry" />
        </mxCell>
        <mxCell id="_KH7z-mZNgkbnXynQg-t-6" value="&lt;" style="strokeWidth=1;shadow=0;dashed=0;align=center;html=1;shape=mxgraph.mockup.forms.rrect;rSize=4;strokeColor=#999999;fontColor=#008cff;fontSize=19;fontStyle=1;" parent="_KH7z-mZNgkbnXynQg-t-4" vertex="1">
          <mxGeometry x="16.5" y="15.085714285714285" width="51.5625" height="37.714285714285715" as="geometry" />
        </mxCell>
        <mxCell id="_KH7z-mZNgkbnXynQg-t-7" value="&gt;" style="strokeWidth=1;shadow=0;dashed=0;align=center;html=1;shape=mxgraph.mockup.forms.rrect;rSize=4;strokeColor=#999999;fontColor=#008cff;fontSize=19;fontStyle=1;" parent="_KH7z-mZNgkbnXynQg-t-4" vertex="1">
          <mxGeometry x="261.9375" y="15.085714285714285" width="51.5625" height="37.714285714285715" as="geometry" />
        </mxCell>
        <mxCell id="_KH7z-mZNgkbnXynQg-t-8" value="Mo" style="strokeWidth=1;shadow=0;dashed=0;align=center;html=1;shape=mxgraph.mockup.forms.anchor;fontColor=#999999;" parent="_KH7z-mZNgkbnXynQg-t-4" vertex="1">
          <mxGeometry x="20.625" y="52.800000000000004" width="41.25" height="37.714285714285715" as="geometry" />
        </mxCell>
        <mxCell id="_KH7z-mZNgkbnXynQg-t-9" value="Tu" style="strokeWidth=1;shadow=0;dashed=0;align=center;html=1;shape=mxgraph.mockup.forms.anchor;fontColor=#999999;" parent="_KH7z-mZNgkbnXynQg-t-4" vertex="1">
          <mxGeometry x="61.875" y="52.800000000000004" width="41.25" height="37.714285714285715" as="geometry" />
        </mxCell>
        <mxCell id="_KH7z-mZNgkbnXynQg-t-10" value="We" style="strokeWidth=1;shadow=0;dashed=0;align=center;html=1;shape=mxgraph.mockup.forms.anchor;fontColor=#999999;" parent="_KH7z-mZNgkbnXynQg-t-4" vertex="1">
          <mxGeometry x="103.125" y="52.800000000000004" width="41.25" height="37.714285714285715" as="geometry" />
        </mxCell>
        <mxCell id="_KH7z-mZNgkbnXynQg-t-11" value="Th" style="strokeWidth=1;shadow=0;dashed=0;align=center;html=1;shape=mxgraph.mockup.forms.anchor;fontColor=#999999;" parent="_KH7z-mZNgkbnXynQg-t-4" vertex="1">
          <mxGeometry x="144.375" y="52.800000000000004" width="41.25" height="37.714285714285715" as="geometry" />
        </mxCell>
        <mxCell id="_KH7z-mZNgkbnXynQg-t-12" value="Fr" style="strokeWidth=1;shadow=0;dashed=0;align=center;html=1;shape=mxgraph.mockup.forms.anchor;fontColor=#999999;" parent="_KH7z-mZNgkbnXynQg-t-4" vertex="1">
          <mxGeometry x="185.625" y="52.800000000000004" width="41.25" height="37.714285714285715" as="geometry" />
        </mxCell>
        <mxCell id="_KH7z-mZNgkbnXynQg-t-13" value="Sa" style="strokeWidth=1;shadow=0;dashed=0;align=center;html=1;shape=mxgraph.mockup.forms.anchor;fontColor=#999999;" parent="_KH7z-mZNgkbnXynQg-t-4" vertex="1">
          <mxGeometry x="226.875" y="52.800000000000004" width="41.25" height="37.714285714285715" as="geometry" />
        </mxCell>
        <mxCell id="_KH7z-mZNgkbnXynQg-t-14" value="Su" style="strokeWidth=1;shadow=0;dashed=0;align=center;html=1;shape=mxgraph.mockup.forms.anchor;fontColor=#999999;" parent="_KH7z-mZNgkbnXynQg-t-4" vertex="1">
          <mxGeometry x="268.125" y="52.800000000000004" width="41.25" height="37.714285714285715" as="geometry" />
        </mxCell>
        <mxCell id="_KH7z-mZNgkbnXynQg-t-15" value="1" style="strokeWidth=1;shadow=0;dashed=0;align=center;html=1;shape=mxgraph.mockup.forms.rrect;rSize=0;strokeColor=#999999;fontColor=#999999;" parent="_KH7z-mZNgkbnXynQg-t-4" vertex="1">
          <mxGeometry x="20.625" y="90.51428571428572" width="41.25" height="37.714285714285715" as="geometry" />
        </mxCell>
        <mxCell id="_KH7z-mZNgkbnXynQg-t-16" value="2" style="strokeWidth=1;shadow=0;dashed=0;align=center;html=1;shape=mxgraph.mockup.forms.rrect;rSize=0;strokeColor=#999999;fontColor=#999999;" parent="_KH7z-mZNgkbnXynQg-t-4" vertex="1">
          <mxGeometry x="61.875" y="90.51428571428572" width="41.25" height="37.714285714285715" as="geometry" />
        </mxCell>
        <mxCell id="_KH7z-mZNgkbnXynQg-t-17" value="3" style="strokeWidth=1;shadow=0;dashed=0;align=center;html=1;shape=mxgraph.mockup.forms.rrect;rSize=0;strokeColor=#999999;fontColor=#999999;" parent="_KH7z-mZNgkbnXynQg-t-4" vertex="1">
          <mxGeometry x="103.125" y="90.51428571428572" width="41.25" height="37.714285714285715" as="geometry" />
        </mxCell>
        <mxCell id="_KH7z-mZNgkbnXynQg-t-18" value="4" style="strokeWidth=1;shadow=0;dashed=0;align=center;html=1;shape=mxgraph.mockup.forms.rrect;rSize=0;strokeColor=#999999;fontColor=#999999;" parent="_KH7z-mZNgkbnXynQg-t-4" vertex="1">
          <mxGeometry x="144.375" y="90.51428571428572" width="41.25" height="37.714285714285715" as="geometry" />
        </mxCell>
        <mxCell id="_KH7z-mZNgkbnXynQg-t-19" value="5" style="strokeWidth=1;shadow=0;dashed=0;align=center;html=1;shape=mxgraph.mockup.forms.rrect;rSize=0;strokeColor=#999999;fontColor=#999999;" parent="_KH7z-mZNgkbnXynQg-t-4" vertex="1">
          <mxGeometry x="185.625" y="90.51428571428572" width="41.25" height="37.714285714285715" as="geometry" />
        </mxCell>
        <mxCell id="_KH7z-mZNgkbnXynQg-t-20" value="6" style="strokeWidth=1;shadow=0;dashed=0;align=center;html=1;shape=mxgraph.mockup.forms.rrect;rSize=0;strokeColor=#999999;fontColor=#999999;" parent="_KH7z-mZNgkbnXynQg-t-4" vertex="1">
          <mxGeometry x="226.875" y="90.51428571428572" width="41.25" height="37.714285714285715" as="geometry" />
        </mxCell>
        <mxCell id="_KH7z-mZNgkbnXynQg-t-21" value="7" style="strokeWidth=1;shadow=0;dashed=0;align=center;html=1;shape=mxgraph.mockup.forms.rrect;rSize=0;strokeColor=#999999;fontColor=#999999;" parent="_KH7z-mZNgkbnXynQg-t-4" vertex="1">
          <mxGeometry x="268.125" y="90.51428571428572" width="41.25" height="37.714285714285715" as="geometry" />
        </mxCell>
        <mxCell id="_KH7z-mZNgkbnXynQg-t-22" value="8" style="strokeWidth=1;shadow=0;dashed=0;align=center;html=1;shape=mxgraph.mockup.forms.rrect;rSize=0;strokeColor=#999999;fontColor=#999999;" parent="_KH7z-mZNgkbnXynQg-t-4" vertex="1">
          <mxGeometry x="20.625" y="128.22857142857143" width="41.25" height="37.714285714285715" as="geometry" />
        </mxCell>
        <mxCell id="_KH7z-mZNgkbnXynQg-t-23" value="9" style="strokeWidth=1;shadow=0;dashed=0;align=center;html=1;shape=mxgraph.mockup.forms.rrect;rSize=0;strokeColor=#999999;fontColor=#999999;" parent="_KH7z-mZNgkbnXynQg-t-4" vertex="1">
          <mxGeometry x="61.875" y="128.22857142857143" width="41.25" height="37.714285714285715" as="geometry" />
        </mxCell>
        <mxCell id="_KH7z-mZNgkbnXynQg-t-24" value="10" style="strokeWidth=1;shadow=0;dashed=0;align=center;html=1;shape=mxgraph.mockup.forms.rrect;rSize=0;strokeColor=#999999;fontColor=#999999;" parent="_KH7z-mZNgkbnXynQg-t-4" vertex="1">
          <mxGeometry x="103.125" y="128.22857142857143" width="41.25" height="37.714285714285715" as="geometry" />
        </mxCell>
        <mxCell id="_KH7z-mZNgkbnXynQg-t-25" value="11" style="strokeWidth=1;shadow=0;dashed=0;align=center;html=1;shape=mxgraph.mockup.forms.rrect;rSize=0;strokeColor=#999999;fontColor=#999999;" parent="_KH7z-mZNgkbnXynQg-t-4" vertex="1">
          <mxGeometry x="144.375" y="128.22857142857143" width="41.25" height="37.714285714285715" as="geometry" />
        </mxCell>
        <mxCell id="_KH7z-mZNgkbnXynQg-t-26" value="12" style="strokeWidth=1;shadow=0;dashed=0;align=center;html=1;shape=mxgraph.mockup.forms.rrect;rSize=0;strokeColor=#999999;fontColor=#999999;" parent="_KH7z-mZNgkbnXynQg-t-4" vertex="1">
          <mxGeometry x="185.625" y="128.22857142857143" width="41.25" height="37.714285714285715" as="geometry" />
        </mxCell>
        <mxCell id="_KH7z-mZNgkbnXynQg-t-27" value="13" style="strokeWidth=1;shadow=0;dashed=0;align=center;html=1;shape=mxgraph.mockup.forms.rrect;rSize=0;strokeColor=#999999;fontColor=#999999;" parent="_KH7z-mZNgkbnXynQg-t-4" vertex="1">
          <mxGeometry x="226.875" y="128.22857142857143" width="41.25" height="37.714285714285715" as="geometry" />
        </mxCell>
        <mxCell id="_KH7z-mZNgkbnXynQg-t-28" value="14" style="strokeWidth=1;shadow=0;dashed=0;align=center;html=1;shape=mxgraph.mockup.forms.rrect;rSize=0;strokeColor=#999999;fontColor=#999999;" parent="_KH7z-mZNgkbnXynQg-t-4" vertex="1">
          <mxGeometry x="268.125" y="128.22857142857143" width="41.25" height="37.714285714285715" as="geometry" />
        </mxCell>
        <mxCell id="_KH7z-mZNgkbnXynQg-t-29" value="15" style="strokeWidth=1;shadow=0;dashed=0;align=center;html=1;shape=mxgraph.mockup.forms.rrect;rSize=0;strokeColor=#999999;fontColor=#999999;" parent="_KH7z-mZNgkbnXynQg-t-4" vertex="1">
          <mxGeometry x="20.625" y="165.94285714285715" width="41.25" height="37.714285714285715" as="geometry" />
        </mxCell>
        <mxCell id="_KH7z-mZNgkbnXynQg-t-30" value="16" style="strokeWidth=1;shadow=0;dashed=0;align=center;html=1;shape=mxgraph.mockup.forms.rrect;rSize=0;strokeColor=#999999;fontColor=#999999;" parent="_KH7z-mZNgkbnXynQg-t-4" vertex="1">
          <mxGeometry x="61.875" y="165.94285714285715" width="41.25" height="37.714285714285715" as="geometry" />
        </mxCell>
        <mxCell id="_KH7z-mZNgkbnXynQg-t-31" value="17" style="strokeWidth=1;shadow=0;dashed=0;align=center;html=1;shape=mxgraph.mockup.forms.rrect;rSize=0;strokeColor=#999999;fontColor=#999999;" parent="_KH7z-mZNgkbnXynQg-t-4" vertex="1">
          <mxGeometry x="103.125" y="165.94285714285715" width="41.25" height="37.714285714285715" as="geometry" />
        </mxCell>
        <mxCell id="_KH7z-mZNgkbnXynQg-t-32" value="18" style="strokeWidth=1;shadow=0;dashed=0;align=center;html=1;shape=mxgraph.mockup.forms.rrect;rSize=0;strokeColor=#999999;fontColor=#999999;" parent="_KH7z-mZNgkbnXynQg-t-4" vertex="1">
          <mxGeometry x="144.375" y="165.94285714285715" width="41.25" height="37.714285714285715" as="geometry" />
        </mxCell>
        <mxCell id="_KH7z-mZNgkbnXynQg-t-33" value="19" style="strokeWidth=1;shadow=0;dashed=0;align=center;html=1;shape=mxgraph.mockup.forms.rrect;rSize=0;strokeColor=#999999;fontColor=#999999;" parent="_KH7z-mZNgkbnXynQg-t-4" vertex="1">
          <mxGeometry x="185.625" y="165.94285714285715" width="41.25" height="37.714285714285715" as="geometry" />
        </mxCell>
        <mxCell id="_KH7z-mZNgkbnXynQg-t-34" value="20" style="strokeWidth=1;shadow=0;dashed=0;align=center;html=1;shape=mxgraph.mockup.forms.rrect;rSize=0;strokeColor=#999999;fontColor=#999999;" parent="_KH7z-mZNgkbnXynQg-t-4" vertex="1">
          <mxGeometry x="226.875" y="165.94285714285715" width="41.25" height="37.714285714285715" as="geometry" />
        </mxCell>
        <mxCell id="_KH7z-mZNgkbnXynQg-t-35" value="21" style="strokeWidth=1;shadow=0;dashed=0;align=center;html=1;shape=mxgraph.mockup.forms.rrect;rSize=0;strokeColor=#999999;fontColor=#999999;" parent="_KH7z-mZNgkbnXynQg-t-4" vertex="1">
          <mxGeometry x="268.125" y="165.94285714285715" width="41.25" height="37.714285714285715" as="geometry" />
        </mxCell>
        <mxCell id="_KH7z-mZNgkbnXynQg-t-36" value="22" style="strokeWidth=1;shadow=0;dashed=0;align=center;html=1;shape=mxgraph.mockup.forms.rrect;rSize=0;strokeColor=#999999;fontColor=#999999;" parent="_KH7z-mZNgkbnXynQg-t-4" vertex="1">
          <mxGeometry x="20.625" y="203.65714285714287" width="41.25" height="37.714285714285715" as="geometry" />
        </mxCell>
        <mxCell id="_KH7z-mZNgkbnXynQg-t-37" value="23" style="strokeWidth=1;shadow=0;dashed=0;align=center;html=1;shape=mxgraph.mockup.forms.rrect;rSize=0;strokeColor=#999999;fontColor=#999999;" parent="_KH7z-mZNgkbnXynQg-t-4" vertex="1">
          <mxGeometry x="61.875" y="203.65714285714287" width="41.25" height="37.714285714285715" as="geometry" />
        </mxCell>
        <mxCell id="_KH7z-mZNgkbnXynQg-t-38" value="25" style="strokeWidth=1;shadow=0;dashed=0;align=center;html=1;shape=mxgraph.mockup.forms.rrect;rSize=0;strokeColor=#999999;fontColor=#999999;" parent="_KH7z-mZNgkbnXynQg-t-4" vertex="1">
          <mxGeometry x="144.375" y="203.65714285714287" width="41.25" height="37.714285714285715" as="geometry" />
        </mxCell>
        <mxCell id="_KH7z-mZNgkbnXynQg-t-39" value="26" style="strokeWidth=1;shadow=0;dashed=0;align=center;html=1;shape=mxgraph.mockup.forms.rrect;rSize=0;strokeColor=#999999;fontColor=#999999;" parent="_KH7z-mZNgkbnXynQg-t-4" vertex="1">
          <mxGeometry x="185.625" y="203.65714285714287" width="41.25" height="37.714285714285715" as="geometry" />
        </mxCell>
        <mxCell id="_KH7z-mZNgkbnXynQg-t-40" value="27" style="strokeWidth=1;shadow=0;dashed=0;align=center;html=1;shape=mxgraph.mockup.forms.rrect;rSize=0;strokeColor=#999999;fontColor=#999999;" parent="_KH7z-mZNgkbnXynQg-t-4" vertex="1">
          <mxGeometry x="226.875" y="203.65714285714287" width="41.25" height="37.714285714285715" as="geometry" />
        </mxCell>
        <mxCell id="_KH7z-mZNgkbnXynQg-t-41" value="28" style="strokeWidth=1;shadow=0;dashed=0;align=center;html=1;shape=mxgraph.mockup.forms.rrect;rSize=0;strokeColor=#999999;fontColor=#999999;" parent="_KH7z-mZNgkbnXynQg-t-4" vertex="1">
          <mxGeometry x="268.125" y="203.65714285714287" width="41.25" height="37.714285714285715" as="geometry" />
        </mxCell>
        <mxCell id="_KH7z-mZNgkbnXynQg-t-42" value="29" style="strokeWidth=1;shadow=0;dashed=0;align=center;html=1;shape=mxgraph.mockup.forms.rrect;rSize=0;strokeColor=#999999;fontColor=#999999;" parent="_KH7z-mZNgkbnXynQg-t-4" vertex="1">
          <mxGeometry x="20.625" y="241.37142857142857" width="41.25" height="37.714285714285715" as="geometry" />
        </mxCell>
        <mxCell id="_KH7z-mZNgkbnXynQg-t-43" value="30" style="strokeWidth=1;shadow=0;dashed=0;align=center;html=1;shape=mxgraph.mockup.forms.rrect;rSize=0;strokeColor=#999999;fontColor=#999999;" parent="_KH7z-mZNgkbnXynQg-t-4" vertex="1">
          <mxGeometry x="61.875" y="241.37142857142857" width="41.25" height="37.714285714285715" as="geometry" />
        </mxCell>
        <mxCell id="_KH7z-mZNgkbnXynQg-t-44" value="31" style="strokeWidth=1;shadow=0;dashed=0;align=center;html=1;shape=mxgraph.mockup.forms.rrect;rSize=0;strokeColor=#999999;fontColor=#999999;" parent="_KH7z-mZNgkbnXynQg-t-4" vertex="1">
          <mxGeometry x="103.125" y="241.37142857142857" width="41.25" height="37.714285714285715" as="geometry" />
        </mxCell>
        <mxCell id="_KH7z-mZNgkbnXynQg-t-45" value="1" style="strokeWidth=1;shadow=0;dashed=0;align=center;html=1;shape=mxgraph.mockup.forms.rrect;rSize=0;strokeColor=#999999;fontColor=#999999;fillColor=#ddeeff;" parent="_KH7z-mZNgkbnXynQg-t-4" vertex="1">
          <mxGeometry x="144.375" y="241.37142857142857" width="41.25" height="37.714285714285715" as="geometry" />
        </mxCell>
        <mxCell id="_KH7z-mZNgkbnXynQg-t-46" value="2" style="strokeWidth=1;shadow=0;dashed=0;align=center;html=1;shape=mxgraph.mockup.forms.rrect;rSize=0;strokeColor=#999999;fontColor=#999999;fillColor=#ddeeff;" parent="_KH7z-mZNgkbnXynQg-t-4" vertex="1">
          <mxGeometry x="185.625" y="241.37142857142857" width="41.25" height="37.714285714285715" as="geometry" />
        </mxCell>
        <mxCell id="_KH7z-mZNgkbnXynQg-t-47" value="3" style="strokeWidth=1;shadow=0;dashed=0;align=center;html=1;shape=mxgraph.mockup.forms.rrect;rSize=0;strokeColor=#999999;fontColor=#999999;fillColor=#ddeeff;" parent="_KH7z-mZNgkbnXynQg-t-4" vertex="1">
          <mxGeometry x="226.875" y="241.37142857142857" width="41.25" height="37.714285714285715" as="geometry" />
        </mxCell>
        <mxCell id="_KH7z-mZNgkbnXynQg-t-48" value="4" style="strokeWidth=1;shadow=0;dashed=0;align=center;html=1;shape=mxgraph.mockup.forms.rrect;rSize=0;strokeColor=#999999;fontColor=#999999;fillColor=#ddeeff;" parent="_KH7z-mZNgkbnXynQg-t-4" vertex="1">
          <mxGeometry x="268.125" y="241.37142857142857" width="41.25" height="37.714285714285715" as="geometry" />
        </mxCell>
        <mxCell id="_KH7z-mZNgkbnXynQg-t-49" value="5" style="strokeWidth=1;shadow=0;dashed=0;align=center;html=1;shape=mxgraph.mockup.forms.rrect;rSize=0;strokeColor=#999999;fontColor=#999999;fillColor=#ddeeff;" parent="_KH7z-mZNgkbnXynQg-t-4" vertex="1">
          <mxGeometry x="20.625" y="279.0857142857143" width="41.25" height="37.714285714285715" as="geometry" />
        </mxCell>
        <mxCell id="_KH7z-mZNgkbnXynQg-t-50" value="6" style="strokeWidth=1;shadow=0;dashed=0;align=center;html=1;shape=mxgraph.mockup.forms.rrect;rSize=0;strokeColor=#999999;fontColor=#999999;fillColor=#ddeeff;" parent="_KH7z-mZNgkbnXynQg-t-4" vertex="1">
          <mxGeometry x="61.875" y="279.0857142857143" width="41.25" height="37.714285714285715" as="geometry" />
        </mxCell>
        <mxCell id="_KH7z-mZNgkbnXynQg-t-51" value="7" style="strokeWidth=1;shadow=0;dashed=0;align=center;html=1;shape=mxgraph.mockup.forms.rrect;rSize=0;strokeColor=#999999;fontColor=#999999;fillColor=#ddeeff;" parent="_KH7z-mZNgkbnXynQg-t-4" vertex="1">
          <mxGeometry x="103.125" y="279.0857142857143" width="41.25" height="37.714285714285715" as="geometry" />
        </mxCell>
        <mxCell id="_KH7z-mZNgkbnXynQg-t-52" value="8" style="strokeWidth=1;shadow=0;dashed=0;align=center;html=1;shape=mxgraph.mockup.forms.rrect;rSize=0;strokeColor=#999999;fontColor=#999999;fillColor=#ddeeff;" parent="_KH7z-mZNgkbnXynQg-t-4" vertex="1">
          <mxGeometry x="144.375" y="279.0857142857143" width="41.25" height="37.714285714285715" as="geometry" />
        </mxCell>
        <mxCell id="_KH7z-mZNgkbnXynQg-t-53" value="9" style="strokeWidth=1;shadow=0;dashed=0;align=center;html=1;shape=mxgraph.mockup.forms.rrect;rSize=0;strokeColor=#999999;fontColor=#999999;fillColor=#ddeeff;" parent="_KH7z-mZNgkbnXynQg-t-4" vertex="1">
          <mxGeometry x="185.625" y="279.0857142857143" width="41.25" height="37.714285714285715" as="geometry" />
        </mxCell>
        <mxCell id="_KH7z-mZNgkbnXynQg-t-54" value="10" style="strokeWidth=1;shadow=0;dashed=0;align=center;html=1;shape=mxgraph.mockup.forms.rrect;rSize=0;strokeColor=#999999;fontColor=#999999;fillColor=#ddeeff;" parent="_KH7z-mZNgkbnXynQg-t-4" vertex="1">
          <mxGeometry x="226.875" y="279.0857142857143" width="41.25" height="37.714285714285715" as="geometry" />
        </mxCell>
        <mxCell id="_KH7z-mZNgkbnXynQg-t-55" value="11" style="strokeWidth=1;shadow=0;dashed=0;align=center;html=1;shape=mxgraph.mockup.forms.rrect;rSize=0;strokeColor=#999999;fontColor=#999999;fillColor=#ddeeff;" parent="_KH7z-mZNgkbnXynQg-t-4" vertex="1">
          <mxGeometry x="268.125" y="279.0857142857143" width="41.25" height="37.714285714285715" as="geometry" />
        </mxCell>
        <mxCell id="_KH7z-mZNgkbnXynQg-t-56" value="24" style="strokeWidth=1;shadow=0;dashed=0;align=center;html=1;shape=mxgraph.mockup.forms.rrect;rSize=0;strokeColor=#ff0000;fontColor=#ffffff;strokeWidth=2;fillColor=#008cff;" parent="_KH7z-mZNgkbnXynQg-t-4" vertex="1">
          <mxGeometry x="103.125" y="203.65714285714287" width="41.25" height="37.714285714285715" as="geometry" />
        </mxCell>
        <mxCell id="_KH7z-mZNgkbnXynQg-t-57" value="Tab 1" style="strokeWidth=1;shadow=0;dashed=0;align=center;html=1;shape=mxgraph.mockup.forms.uRect;fontSize=17;fontColor=#666666;align=left;spacingLeft=5;strokeColor=#666666;" parent="1" vertex="1">
          <mxGeometry x="150" y="-220" width="70" height="30" as="geometry" />
        </mxCell>
        <mxCell id="07dTBZBgKtnHp4AFCqou-1" value="" style="verticalLabelPosition=bottom;shadow=0;dashed=0;align=center;html=1;verticalAlign=top;strokeWidth=1;shape=mxgraph.mockup.menus_and_buttons.font_style_selector_3;" parent="1" vertex="1">
          <mxGeometry x="160" y="382" width="176" height="38" as="geometry" />
        </mxCell>
      </root>
    </mxGraphModel>
  </diagram>
  <diagram id="8NhWHGfMRtJj176Ybfgi" name="Page-4">
    <mxGraphModel dx="2058" dy="1215" grid="1" gridSize="10" guides="1" tooltips="1" connect="1" arrows="1" fold="1" page="0" pageScale="1" pageWidth="850" pageHeight="1100" math="0" shadow="0">
      <root>
        <mxCell id="0" />
        <mxCell id="1" parent="0" />
        <mxCell id="cB3IaUJPMOgiPTC3FGsS-6" style="edgeStyle=orthogonalEdgeStyle;rounded=0;orthogonalLoop=1;jettySize=auto;html=1;exitX=0.5;exitY=1;exitDx=0;exitDy=0;entryX=0.5;entryY=0;entryDx=0;entryDy=0;" parent="1" source="9wJZNJy1eWOIrbFUBo4p-1" target="9wJZNJy1eWOIrbFUBo4p-5" edge="1">
          <mxGeometry relative="1" as="geometry" />
        </mxCell>
        <mxCell id="9wJZNJy1eWOIrbFUBo4p-1" value="User clicks on the file button and begins a new project" style="rounded=1;whiteSpace=wrap;html=1;absoluteArcSize=1;arcSize=14;strokeWidth=2;" parent="1" vertex="1">
          <mxGeometry x="160" y="-150" width="100" height="100" as="geometry" />
        </mxCell>
        <mxCell id="cB3IaUJPMOgiPTC3FGsS-3" style="edgeStyle=orthogonalEdgeStyle;rounded=0;orthogonalLoop=1;jettySize=auto;html=1;exitX=0.5;exitY=1;exitDx=0;exitDy=0;exitPerimeter=0;entryX=0.5;entryY=0;entryDx=0;entryDy=0;" parent="1" source="9wJZNJy1eWOIrbFUBo4p-2" target="9wJZNJy1eWOIrbFUBo4p-4" edge="1">
          <mxGeometry relative="1" as="geometry" />
        </mxCell>
        <mxCell id="9wJZNJy1eWOIrbFUBo4p-2" value="Start" style="strokeWidth=2;html=1;shape=mxgraph.flowchart.start_1;whiteSpace=wrap;" parent="1" vertex="1">
          <mxGeometry x="160" y="-390" width="100" height="60" as="geometry" />
        </mxCell>
        <mxCell id="cB3IaUJPMOgiPTC3FGsS-4" style="edgeStyle=orthogonalEdgeStyle;rounded=0;orthogonalLoop=1;jettySize=auto;html=1;exitX=0.5;exitY=1;exitDx=0;exitDy=0;entryX=0.5;entryY=0;entryDx=0;entryDy=0;" parent="1" source="9wJZNJy1eWOIrbFUBo4p-4" target="9wJZNJy1eWOIrbFUBo4p-1" edge="1">
          <mxGeometry relative="1" as="geometry" />
        </mxCell>
        <mxCell id="9wJZNJy1eWOIrbFUBo4p-4" value="Application&amp;nbsp; begins" style="rounded=1;whiteSpace=wrap;html=1;absoluteArcSize=1;arcSize=14;strokeWidth=2;" parent="1" vertex="1">
          <mxGeometry x="160" y="-280" width="100" height="100" as="geometry" />
        </mxCell>
        <mxCell id="cB3IaUJPMOgiPTC3FGsS-7" style="rounded=0;orthogonalLoop=1;jettySize=auto;html=1;exitX=0;exitY=0.75;exitDx=0;exitDy=0;entryX=1;entryY=0.5;entryDx=0;entryDy=0;" parent="1" source="9wJZNJy1eWOIrbFUBo4p-5" target="9wJZNJy1eWOIrbFUBo4p-6" edge="1">
          <mxGeometry relative="1" as="geometry" />
        </mxCell>
        <mxCell id="cB3IaUJPMOgiPTC3FGsS-8" style="rounded=0;orthogonalLoop=1;jettySize=auto;html=1;exitX=1;exitY=0.5;exitDx=0;exitDy=0;entryX=0;entryY=0.5;entryDx=0;entryDy=0;" parent="1" source="9wJZNJy1eWOIrbFUBo4p-5" target="9wJZNJy1eWOIrbFUBo4p-7" edge="1">
          <mxGeometry relative="1" as="geometry" />
        </mxCell>
        <mxCell id="9wJZNJy1eWOIrbFUBo4p-5" value="User selects the accident dataset from the hard drive" style="rounded=1;whiteSpace=wrap;html=1;absoluteArcSize=1;arcSize=14;strokeWidth=2;" parent="1" vertex="1">
          <mxGeometry x="160" y="-20" width="100" height="100" as="geometry" />
        </mxCell>
        <mxCell id="cB3IaUJPMOgiPTC3FGsS-13" style="rounded=0;orthogonalLoop=1;jettySize=auto;html=1;exitX=0.5;exitY=1;exitDx=0;exitDy=0;entryX=0;entryY=0.5;entryDx=0;entryDy=0;" parent="1" source="9wJZNJy1eWOIrbFUBo4p-6" target="cB3IaUJPMOgiPTC3FGsS-2" edge="1">
          <mxGeometry relative="1" as="geometry" />
        </mxCell>
        <mxCell id="9wJZNJy1eWOIrbFUBo4p-6" value="User clicks on the create button to begin a new graph" style="rounded=1;whiteSpace=wrap;html=1;absoluteArcSize=1;arcSize=14;strokeWidth=2;" parent="1" vertex="1">
          <mxGeometry x="-90" y="120" width="100" height="100" as="geometry" />
        </mxCell>
        <mxCell id="cB3IaUJPMOgiPTC3FGsS-9" style="rounded=0;orthogonalLoop=1;jettySize=auto;html=1;exitX=0;exitY=1;exitDx=0;exitDy=0;entryX=0.5;entryY=0;entryDx=0;entryDy=0;" parent="1" source="9wJZNJy1eWOIrbFUBo4p-7" target="9wJZNJy1eWOIrbFUBo4p-8" edge="1">
          <mxGeometry relative="1" as="geometry" />
        </mxCell>
        <mxCell id="cB3IaUJPMOgiPTC3FGsS-10" style="rounded=0;orthogonalLoop=1;jettySize=auto;html=1;exitX=0.5;exitY=1;exitDx=0;exitDy=0;entryX=0.5;entryY=0;entryDx=0;entryDy=0;" parent="1" source="9wJZNJy1eWOIrbFUBo4p-7" target="9wJZNJy1eWOIrbFUBo4p-9" edge="1">
          <mxGeometry relative="1" as="geometry" />
        </mxCell>
        <mxCell id="cB3IaUJPMOgiPTC3FGsS-11" style="rounded=0;orthogonalLoop=1;jettySize=auto;html=1;exitX=1;exitY=1;exitDx=0;exitDy=0;entryX=0.5;entryY=0;entryDx=0;entryDy=0;" parent="1" source="9wJZNJy1eWOIrbFUBo4p-7" target="cB3IaUJPMOgiPTC3FGsS-1" edge="1">
          <mxGeometry relative="1" as="geometry" />
        </mxCell>
        <mxCell id="9wJZNJy1eWOIrbFUBo4p-7" value="Using the tool button the user can navigate to different screens of the program." style="rounded=1;whiteSpace=wrap;html=1;absoluteArcSize=1;arcSize=14;strokeWidth=2;" parent="1" vertex="1">
          <mxGeometry x="440" y="130" width="100" height="100" as="geometry" />
        </mxCell>
        <mxCell id="cB3IaUJPMOgiPTC3FGsS-14" style="rounded=0;orthogonalLoop=1;jettySize=auto;html=1;exitX=0.5;exitY=1;exitDx=0;exitDy=0;entryX=1;entryY=0;entryDx=0;entryDy=0;" parent="1" source="9wJZNJy1eWOIrbFUBo4p-8" target="cB3IaUJPMOgiPTC3FGsS-2" edge="1">
          <mxGeometry relative="1" as="geometry" />
        </mxCell>
        <mxCell id="9wJZNJy1eWOIrbFUBo4p-8" value="User navigates to&lt;br&gt;the tabulated search screen." style="rounded=1;whiteSpace=wrap;html=1;absoluteArcSize=1;arcSize=14;strokeWidth=2;" parent="1" vertex="1">
          <mxGeometry x="290" y="340" width="100" height="100" as="geometry" />
        </mxCell>
        <mxCell id="cB3IaUJPMOgiPTC3FGsS-15" style="rounded=0;orthogonalLoop=1;jettySize=auto;html=1;exitX=0.5;exitY=1;exitDx=0;exitDy=0;entryX=1;entryY=0.5;entryDx=0;entryDy=0;" parent="1" source="9wJZNJy1eWOIrbFUBo4p-9" target="cB3IaUJPMOgiPTC3FGsS-2" edge="1">
          <mxGeometry relative="1" as="geometry" />
        </mxCell>
        <mxCell id="9wJZNJy1eWOIrbFUBo4p-9" value="User navigates to the graphing overtime screen" style="rounded=1;whiteSpace=wrap;html=1;absoluteArcSize=1;arcSize=14;strokeWidth=2;" parent="1" vertex="1">
          <mxGeometry x="450" y="340" width="100" height="100" as="geometry" />
        </mxCell>
        <mxCell id="Exl2_gu-kYcX6yygY37K-1" value="End" style="strokeWidth=2;html=1;shape=mxgraph.flowchart.start_1;whiteSpace=wrap;" parent="1" vertex="1">
          <mxGeometry x="160" y="660" width="100" height="60" as="geometry" />
        </mxCell>
        <mxCell id="cB3IaUJPMOgiPTC3FGsS-16" style="rounded=0;orthogonalLoop=1;jettySize=auto;html=1;exitX=0.5;exitY=1;exitDx=0;exitDy=0;entryX=1;entryY=1;entryDx=0;entryDy=0;" parent="1" source="cB3IaUJPMOgiPTC3FGsS-1" target="cB3IaUJPMOgiPTC3FGsS-2" edge="1">
          <mxGeometry relative="1" as="geometry" />
        </mxCell>
        <mxCell id="cB3IaUJPMOgiPTC3FGsS-1" value="User nagivates to the tabulated overtime screen" style="rounded=1;whiteSpace=wrap;html=1;absoluteArcSize=1;arcSize=14;strokeWidth=2;" parent="1" vertex="1">
          <mxGeometry x="620" y="340" width="100" height="100" as="geometry" />
        </mxCell>
        <mxCell id="cB3IaUJPMOgiPTC3FGsS-12" style="edgeStyle=orthogonalEdgeStyle;rounded=0;orthogonalLoop=1;jettySize=auto;html=1;exitX=0.5;exitY=1;exitDx=0;exitDy=0;entryX=0.5;entryY=0;entryDx=0;entryDy=0;entryPerimeter=0;" parent="1" source="cB3IaUJPMOgiPTC3FGsS-2" target="Exl2_gu-kYcX6yygY37K-1" edge="1">
          <mxGeometry relative="1" as="geometry" />
        </mxCell>
        <mxCell id="cB3IaUJPMOgiPTC3FGsS-2" value="User closes application" style="rounded=1;whiteSpace=wrap;html=1;absoluteArcSize=1;arcSize=14;strokeWidth=2;" parent="1" vertex="1">
          <mxGeometry x="160" y="490" width="100" height="100" as="geometry" />
        </mxCell>
      </root>
    </mxGraphModel>
  </diagram>
  <diagram id="NXizq6yOfNqFciETTnvk" name="Page-6">
    <mxGraphModel dx="2458" dy="1215" grid="1" gridSize="10" guides="1" tooltips="1" connect="1" arrows="1" fold="1" page="0" pageScale="1" pageWidth="850" pageHeight="1100" math="0" shadow="0">
      <root>
        <mxCell id="0" />
        <mxCell id="1" parent="0" />
        <mxCell id="orZQ0jeBDir-vS5c09Wh-21" style="edgeStyle=orthogonalEdgeStyle;rounded=0;orthogonalLoop=1;jettySize=auto;html=1;exitX=0.5;exitY=1;exitDx=0;exitDy=0;exitPerimeter=0;entryX=0.5;entryY=0;entryDx=0;entryDy=0;" parent="1" source="orZQ0jeBDir-vS5c09Wh-2" target="orZQ0jeBDir-vS5c09Wh-3" edge="1">
          <mxGeometry relative="1" as="geometry" />
        </mxCell>
        <mxCell id="orZQ0jeBDir-vS5c09Wh-2" value="Start Design." style="strokeWidth=2;html=1;shape=mxgraph.flowchart.start_1;whiteSpace=wrap;" parent="1" vertex="1">
          <mxGeometry x="-225" y="-110" width="100" height="60" as="geometry" />
        </mxCell>
        <mxCell id="orZQ0jeBDir-vS5c09Wh-22" style="edgeStyle=orthogonalEdgeStyle;rounded=0;orthogonalLoop=1;jettySize=auto;html=1;exitX=0.5;exitY=1;exitDx=0;exitDy=0;entryX=0.5;entryY=0;entryDx=0;entryDy=0;" parent="1" source="orZQ0jeBDir-vS5c09Wh-3" target="orZQ0jeBDir-vS5c09Wh-4" edge="1">
          <mxGeometry relative="1" as="geometry" />
        </mxCell>
        <mxCell id="orZQ0jeBDir-vS5c09Wh-3" value="A program that can analysis and graph the Victoria accident&amp;nbsp;&lt;br&gt;dataset." style="rounded=1;whiteSpace=wrap;html=1;" parent="1" vertex="1">
          <mxGeometry x="-340" y="20" width="330" height="60" as="geometry" />
        </mxCell>
        <mxCell id="orZQ0jeBDir-vS5c09Wh-23" style="edgeStyle=orthogonalEdgeStyle;rounded=0;orthogonalLoop=1;jettySize=auto;html=1;exitX=0.5;exitY=1;exitDx=0;exitDy=0;entryX=0.5;entryY=0;entryDx=0;entryDy=0;" parent="1" source="orZQ0jeBDir-vS5c09Wh-4" target="orZQ0jeBDir-vS5c09Wh-5" edge="1">
          <mxGeometry relative="1" as="geometry" />
        </mxCell>
        <mxCell id="orZQ0jeBDir-vS5c09Wh-4" value="The software must be able to produce a number of varying bar&lt;br&gt;graphs and tables." style="rounded=1;whiteSpace=wrap;html=1;" parent="1" vertex="1">
          <mxGeometry x="-340" y="100" width="335" height="60" as="geometry" />
        </mxCell>
        <mxCell id="orZQ0jeBDir-vS5c09Wh-24" style="edgeStyle=orthogonalEdgeStyle;rounded=0;orthogonalLoop=1;jettySize=auto;html=1;exitX=0.5;exitY=1;exitDx=0;exitDy=0;entryX=0.5;entryY=0;entryDx=0;entryDy=0;" parent="1" source="orZQ0jeBDir-vS5c09Wh-5" target="orZQ0jeBDir-vS5c09Wh-8" edge="1">
          <mxGeometry relative="1" as="geometry" />
        </mxCell>
        <mxCell id="orZQ0jeBDir-vS5c09Wh-5" value="A graphical user interface that is designed to faciliate producing bar graphs." style="rounded=1;whiteSpace=wrap;html=1;" parent="1" vertex="1">
          <mxGeometry x="-345" y="180" width="340" height="60" as="geometry" />
        </mxCell>
        <mxCell id="orZQ0jeBDir-vS5c09Wh-13" style="edgeStyle=orthogonalEdgeStyle;rounded=0;orthogonalLoop=1;jettySize=auto;html=1;exitX=0.25;exitY=1;exitDx=0;exitDy=0;entryX=0.5;entryY=0;entryDx=0;entryDy=0;" parent="1" source="orZQ0jeBDir-vS5c09Wh-6" target="orZQ0jeBDir-vS5c09Wh-9" edge="1">
          <mxGeometry relative="1" as="geometry" />
        </mxCell>
        <mxCell id="orZQ0jeBDir-vS5c09Wh-15" value="Yes" style="edgeLabel;html=1;align=center;verticalAlign=middle;resizable=0;points=[];" parent="orZQ0jeBDir-vS5c09Wh-13" vertex="1" connectable="0">
          <mxGeometry x="0.1" y="-1" relative="1" as="geometry">
            <mxPoint as="offset" />
          </mxGeometry>
        </mxCell>
        <mxCell id="orZQ0jeBDir-vS5c09Wh-14" style="edgeStyle=orthogonalEdgeStyle;rounded=0;orthogonalLoop=1;jettySize=auto;html=1;exitX=0.75;exitY=1;exitDx=0;exitDy=0;entryX=0.5;entryY=0;entryDx=0;entryDy=0;" parent="1" source="orZQ0jeBDir-vS5c09Wh-6" target="orZQ0jeBDir-vS5c09Wh-10" edge="1">
          <mxGeometry relative="1" as="geometry" />
        </mxCell>
        <mxCell id="orZQ0jeBDir-vS5c09Wh-16" value="No" style="edgeLabel;html=1;align=center;verticalAlign=middle;resizable=0;points=[];" parent="orZQ0jeBDir-vS5c09Wh-14" vertex="1" connectable="0">
          <mxGeometry x="-0.1091" relative="1" as="geometry">
            <mxPoint as="offset" />
          </mxGeometry>
        </mxCell>
        <mxCell id="orZQ0jeBDir-vS5c09Wh-6" value="Do they work as intended?" style="rounded=1;whiteSpace=wrap;html=1;" parent="1" vertex="1">
          <mxGeometry x="-345" y="420" width="340" height="60" as="geometry" />
        </mxCell>
        <mxCell id="orZQ0jeBDir-vS5c09Wh-26" style="edgeStyle=orthogonalEdgeStyle;rounded=0;orthogonalLoop=1;jettySize=auto;html=1;exitX=0.5;exitY=1;exitDx=0;exitDy=0;entryX=0.5;entryY=0;entryDx=0;entryDy=0;" parent="1" source="orZQ0jeBDir-vS5c09Wh-7" target="orZQ0jeBDir-vS5c09Wh-6" edge="1">
          <mxGeometry relative="1" as="geometry" />
        </mxCell>
        <mxCell id="orZQ0jeBDir-vS5c09Wh-7" value="Write and test these functions." style="rounded=1;whiteSpace=wrap;html=1;" parent="1" vertex="1">
          <mxGeometry x="-345" y="340" width="340" height="60" as="geometry" />
        </mxCell>
        <mxCell id="orZQ0jeBDir-vS5c09Wh-25" style="edgeStyle=orthogonalEdgeStyle;rounded=0;orthogonalLoop=1;jettySize=auto;html=1;exitX=0.5;exitY=1;exitDx=0;exitDy=0;entryX=0.5;entryY=0;entryDx=0;entryDy=0;" parent="1" source="orZQ0jeBDir-vS5c09Wh-8" target="orZQ0jeBDir-vS5c09Wh-7" edge="1">
          <mxGeometry relative="1" as="geometry" />
        </mxCell>
        <mxCell id="orZQ0jeBDir-vS5c09Wh-8" value="Need functions that enable this, e.g. Load data function, tabulate function, search function, bar char function." style="rounded=1;whiteSpace=wrap;html=1;" parent="1" vertex="1">
          <mxGeometry x="-345" y="260" width="340" height="60" as="geometry" />
        </mxCell>
        <mxCell id="orZQ0jeBDir-vS5c09Wh-17" style="edgeStyle=orthogonalEdgeStyle;rounded=0;orthogonalLoop=1;jettySize=auto;html=1;exitX=0.5;exitY=1;exitDx=0;exitDy=0;entryX=0.5;entryY=0;entryDx=0;entryDy=0;entryPerimeter=0;" parent="1" source="orZQ0jeBDir-vS5c09Wh-9" target="orZQ0jeBDir-vS5c09Wh-12" edge="1">
          <mxGeometry relative="1" as="geometry" />
        </mxCell>
        <mxCell id="orZQ0jeBDir-vS5c09Wh-9" value="Lanuch program." style="rounded=1;whiteSpace=wrap;html=1;" parent="1" vertex="1">
          <mxGeometry x="-440" y="560" width="120" height="60" as="geometry" />
        </mxCell>
        <mxCell id="orZQ0jeBDir-vS5c09Wh-19" style="edgeStyle=orthogonalEdgeStyle;rounded=0;orthogonalLoop=1;jettySize=auto;html=1;exitX=0.5;exitY=1;exitDx=0;exitDy=0;entryX=0.5;entryY=0;entryDx=0;entryDy=0;" parent="1" source="orZQ0jeBDir-vS5c09Wh-10" target="orZQ0jeBDir-vS5c09Wh-11" edge="1">
          <mxGeometry relative="1" as="geometry" />
        </mxCell>
        <mxCell id="orZQ0jeBDir-vS5c09Wh-10" value="Debugging.&amp;nbsp;" style="rounded=1;whiteSpace=wrap;html=1;" parent="1" vertex="1">
          <mxGeometry x="-10" y="560" width="120" height="60" as="geometry" />
        </mxCell>
        <mxCell id="orZQ0jeBDir-vS5c09Wh-20" style="edgeStyle=orthogonalEdgeStyle;rounded=0;orthogonalLoop=1;jettySize=auto;html=1;exitX=0;exitY=0.5;exitDx=0;exitDy=0;entryX=0.5;entryY=1;entryDx=0;entryDy=0;" parent="1" source="orZQ0jeBDir-vS5c09Wh-11" target="orZQ0jeBDir-vS5c09Wh-6" edge="1">
          <mxGeometry relative="1" as="geometry" />
        </mxCell>
        <mxCell id="orZQ0jeBDir-vS5c09Wh-11" value="Retest." style="rounded=1;whiteSpace=wrap;html=1;" parent="1" vertex="1">
          <mxGeometry x="-10" y="700" width="120" height="60" as="geometry" />
        </mxCell>
        <mxCell id="orZQ0jeBDir-vS5c09Wh-12" value="Finish.&amp;nbsp;" style="strokeWidth=2;html=1;shape=mxgraph.flowchart.start_1;whiteSpace=wrap;" parent="1" vertex="1">
          <mxGeometry x="-430" y="710" width="100" height="60" as="geometry" />
        </mxCell>
      </root>
    </mxGraphModel>
  </diagram>
  <diagram id="N8dAZvJe3XkaFeVRwEtf" name="Page-7">
    <mxGraphModel dx="1658" dy="815" grid="1" gridSize="10" guides="1" tooltips="1" connect="1" arrows="1" fold="1" page="1" pageScale="1" pageWidth="850" pageHeight="1100" math="0" shadow="0">
      <root>
        <mxCell id="0" />
        <mxCell id="1" parent="0" />
        <mxCell id="1jnfp_cOkLsvzp8_DHs--1" style="rounded=0;orthogonalLoop=1;jettySize=auto;html=1;exitX=1;exitY=0.3333333333333333;exitDx=0;exitDy=0;exitPerimeter=0;entryX=0.008;entryY=0.649;entryDx=0;entryDy=0;entryPerimeter=0;" parent="1" source="1jnfp_cOkLsvzp8_DHs--3" target="1jnfp_cOkLsvzp8_DHs--5" edge="1">
          <mxGeometry relative="1" as="geometry" />
        </mxCell>
        <mxCell id="1jnfp_cOkLsvzp8_DHs--2" style="edgeStyle=orthogonalEdgeStyle;rounded=0;orthogonalLoop=1;jettySize=auto;html=1;exitX=0.5;exitY=0.5;exitDx=0;exitDy=0;exitPerimeter=0;entryX=0;entryY=0.5;entryDx=0;entryDy=0;" parent="1" source="1jnfp_cOkLsvzp8_DHs--3" target="1jnfp_cOkLsvzp8_DHs--10" edge="1">
          <mxGeometry relative="1" as="geometry" />
        </mxCell>
        <mxCell id="1jnfp_cOkLsvzp8_DHs--3" value="User" style="shape=umlActor;verticalLabelPosition=bottom;verticalAlign=top;html=1;outlineConnect=0;" parent="1" vertex="1">
          <mxGeometry x="250" y="495" width="30" height="60" as="geometry" />
        </mxCell>
        <mxCell id="1jnfp_cOkLsvzp8_DHs--4" value="Selects day" style="ellipse;whiteSpace=wrap;html=1;" parent="1" vertex="1">
          <mxGeometry x="700" y="485" width="120" height="80" as="geometry" />
        </mxCell>
        <mxCell id="1jnfp_cOkLsvzp8_DHs--5" value="Starts Program" style="ellipse;whiteSpace=wrap;html=1;" parent="1" vertex="1">
          <mxGeometry x="440" y="355" width="120" height="80" as="geometry" />
        </mxCell>
        <mxCell id="1jnfp_cOkLsvzp8_DHs--6" style="rounded=0;orthogonalLoop=1;jettySize=auto;html=1;exitX=1;exitY=0;exitDx=0;exitDy=0;entryX=0.017;entryY=0.625;entryDx=0;entryDy=0;entryPerimeter=0;dashed=1;dashPattern=8 8;" parent="1" source="1jnfp_cOkLsvzp8_DHs--10" target="1jnfp_cOkLsvzp8_DHs--11" edge="1">
          <mxGeometry relative="1" as="geometry" />
        </mxCell>
        <mxCell id="1jnfp_cOkLsvzp8_DHs--7" value="&amp;lt;&amp;lt;Inclued&amp;gt;&amp;gt;" style="edgeLabel;html=1;align=center;verticalAlign=middle;resizable=0;points=[];" parent="1jnfp_cOkLsvzp8_DHs--6" vertex="1" connectable="0">
          <mxGeometry x="0.0618" y="2" relative="1" as="geometry">
            <mxPoint as="offset" />
          </mxGeometry>
        </mxCell>
        <mxCell id="1jnfp_cOkLsvzp8_DHs--8" style="edgeStyle=orthogonalEdgeStyle;rounded=0;orthogonalLoop=1;jettySize=auto;html=1;exitX=1;exitY=0.5;exitDx=0;exitDy=0;dashed=1;dashPattern=8 8;" parent="1" source="1jnfp_cOkLsvzp8_DHs--10" target="1jnfp_cOkLsvzp8_DHs--4" edge="1">
          <mxGeometry relative="1" as="geometry" />
        </mxCell>
        <mxCell id="1jnfp_cOkLsvzp8_DHs--9" value="&amp;lt;&amp;lt;Inclued&amp;gt;&amp;gt;" style="edgeLabel;html=1;align=center;verticalAlign=middle;resizable=0;points=[];" parent="1jnfp_cOkLsvzp8_DHs--8" vertex="1" connectable="0">
          <mxGeometry x="-0.0571" y="4" relative="1" as="geometry">
            <mxPoint as="offset" />
          </mxGeometry>
        </mxCell>
        <mxCell id="1jnfp_cOkLsvzp8_DHs--10" value="Loads Accident Dataset" style="ellipse;whiteSpace=wrap;html=1;" parent="1" vertex="1">
          <mxGeometry x="440" y="485" width="120" height="80" as="geometry" />
        </mxCell>
        <mxCell id="1jnfp_cOkLsvzp8_DHs--11" value="Creates bar Graph" style="ellipse;whiteSpace=wrap;html=1;" parent="1" vertex="1">
          <mxGeometry x="700" y="355" width="120" height="80" as="geometry" />
        </mxCell>
        <mxCell id="1jnfp_cOkLsvzp8_DHs--12" value="&lt;font style=&quot;font-size: 24px;&quot;&gt;Use Case 2&lt;/font&gt;" style="text;html=1;align=center;verticalAlign=middle;resizable=0;points=[];autosize=1;strokeColor=none;fillColor=none;" parent="1" vertex="1">
          <mxGeometry x="460" y="260" width="150" height="40" as="geometry" />
        </mxCell>
      </root>
    </mxGraphModel>
  </diagram>
</mxfile>
